<svg width="151" height="48" viewBox="0 0 151 48" fill="none" xmlns="http://www.w3.org/2000/svg">
<path d="M7.90339 9.92299C10.4675 3.90757 16.4023 0 22.9744 0H25.0256C31.5977 0 37.5325 3.90757 40.0966 9.923L46.6855 25.3806C51.2588 36.1099 43.3366 48 31.6145 48H16.3855C4.66341 48 -3.25884 36.1098 1.31453 25.3806L7.90339 9.92299Z" fill="#225DE7"/>
<path d="M25.068 14.4H20.196L12.916 34H16.92L18.572 29.268H26.468L28.12 34H32.32L25.068 14.4ZM19.776 25.88L22.52 18.012L25.292 25.88H19.776Z" fill="white"/>
<path d="M34.2107 34H37.9627V32.068C38.9427 33.524 40.4267 34.364 42.3027 34.364C45.8307 34.364 48.4067 31.676 48.4067 27.476V25.628C48.4067 21.428 45.8307 18.74 42.3027 18.74C40.4827 18.74 38.9707 19.524 37.9627 20.924V13.28H34.2107V34ZM37.9627 25.88C37.9627 23.528 39.1947 22.016 41.3507 22.016C43.5067 22.016 44.7107 23.528 44.7107 25.88V27.224C44.7107 29.604 43.5067 31.088 41.3507 31.088C39.1947 31.088 37.9627 29.604 37.9627 27.224V25.88Z" fill="white"/>
<path d="M51.7107 34H55.4627V32.068C56.4427 33.524 57.9267 34.364 59.8027 34.364C63.3307 34.364 65.9067 31.676 65.9067 27.476V25.628C65.9067 21.428 63.3307 18.74 59.8027 18.74C57.9827 18.74 56.4707 19.524 55.4627 20.924V13.28H51.7107V34ZM55.4627 25.88C55.4627 23.528 56.6947 22.016 58.8507 22.016C61.0067 22.016 62.2107 23.528 62.2107 25.88V27.224C62.2107 29.604 61.0067 31.088 58.8507 31.088C56.6947 31.088 55.4627 29.604 55.4627 27.224V25.88Z" fill="white"/>
<path d="M78.0307 22.66V18.964H76.8827C74.8667 18.964 73.5507 20.196 72.9347 22.016V19.104H69.2107V34H72.9627V26.3C72.9627 24.004 74.5587 22.66 76.3787 22.66H78.0307Z" fill="white"/>
<path d="M79.5035 27.28C79.5035 31.564 82.3035 34.336 86.4475 34.336C88.9955 34.336 90.8715 33.412 92.2995 31.844L90.0315 29.604C89.0235 30.612 87.9035 31.116 86.5595 31.116C84.5715 31.116 83.3115 29.912 83.1715 27.756H92.6075V25.768C92.6075 21.624 90.0315 18.74 86.3075 18.74C82.2195 18.74 79.5035 21.568 79.5035 25.824V27.28ZM83.1995 24.928C83.4235 23.024 84.4875 21.988 86.1395 21.988C87.7915 21.988 88.8555 23.052 89.0235 24.928H83.1995Z" fill="white"/>
<path d="M99.5968 34H103.405L109.173 19.104H105.281L101.557 29.324L97.8328 19.104H93.8288L99.5968 34Z" fill="white"/>
<path d="M113.059 17.116C114.235 17.116 115.159 16.192 115.159 15.016C115.159 13.812 114.235 12.888 113.059 12.888C111.883 12.888 110.903 13.812 110.903 15.016C110.903 16.192 111.883 17.116 113.059 17.116ZM114.935 19.104H111.183V34H114.935V19.104Z" fill="white"/>
<path d="M117.774 29.772C117.774 32.376 119.902 34.308 122.842 34.308C124.69 34.308 126.258 33.384 127.098 31.872C127.546 33.188 128.694 34 130.29 34H132.082V30.752H131.326C130.766 30.752 130.458 30.444 130.458 29.884V24.088C130.458 20.868 128.246 18.796 124.746 18.796C122.562 18.796 120.658 19.412 118.866 20.728L120.462 23.5C121.75 22.632 122.982 22.184 124.27 22.184C125.894 22.184 126.79 23.024 126.79 24.508V25.068L122.73 25.376C119.566 25.628 117.774 27.112 117.774 29.772ZM121.414 29.66C121.414 28.736 122.002 28.176 123.262 28.064L126.79 27.756V28.624C126.79 30.164 125.39 31.368 123.71 31.368C122.338 31.368 121.414 30.696 121.414 29.66Z" fill="white"/>
<path d="M143.68 34.336C147.796 34.336 150.792 31.9 150.792 28.484C150.792 26.244 149.252 24.508 147.068 23.836C148.916 23.08 150.148 21.512 150.148 19.524C150.148 16.444 147.404 14.092 143.68 14.064C139.928 14.036 137.212 16.444 137.212 19.524C137.212 21.512 138.444 23.08 140.32 23.808C138.108 24.48 136.568 26.244 136.568 28.484C136.568 31.9 139.592 34.336 143.68 34.336ZM143.68 22.464C142.084 22.464 140.824 21.316 140.824 19.832C140.824 18.292 142.056 17.172 143.68 17.172C145.332 17.172 146.536 18.292 146.536 19.832C146.536 21.316 145.276 22.464 143.68 22.464ZM143.68 25.404C145.612 25.404 147.096 26.664 147.096 28.372C147.096 30.024 145.64 31.228 143.68 31.228C141.72 31.228 140.264 30.024 140.264 28.372C140.264 26.664 141.72 25.404 143.68 25.404Z" fill="#225DE7"/>
</svg>
