<svg width="328" height="72" viewBox="0 0 328 72" fill="none" xmlns="http://www.w3.org/2000/svg">
<path d="M45.2048 49.7712L38.9614 47.9952C35.8589 47.1127 32.5392 47.4151 29.6473 48.8436L9.24269 58.9225C4.80749 61.1132 2 65.6313 2 70.5781V72H327V38L303.186 23.7464C299.607 21.6044 295.218 21.3096 291.385 22.9536L269.875 32.1794C268.256 32.8739 266.512 33.232 264.751 33.232H244.093L210.417 29.0894C208.693 28.8773 206.944 29.0129 205.273 29.4881L175.215 38.0382C171.553 39.0799 167.618 38.4638 164.45 36.3526L142.474 21.7094C141.112 20.8019 139.591 20.1598 137.991 19.8167L114.202 14.715C111.688 14.1758 109.39 12.9031 107.599 11.0578L106.915 10.3531C101.543 4.81785 92.5607 5.15057 87.6129 11.0681L58.7347 45.606C55.4424 49.5436 50.1415 51.1754 45.2048 49.7712Z" fill="url(#paint0_linear)"/>
<path d="M2 62L29.7043 48.7464C32.5631 47.3788 35.823 47.1025 38.8712 47.9696L45.2048 49.7712C50.1415 51.1754 55.4424 49.5436 58.7347 45.606L87.6129 11.0681C92.5607 5.15057 101.543 4.81785 106.915 10.3531L107.599 11.0578C109.39 12.9031 111.688 14.1758 114.202 14.715L137.991 19.8167C139.591 20.1598 141.112 20.8019 142.474 21.7094L164.45 36.3526C167.618 38.4638 171.553 39.0799 175.215 38.0382L205.273 29.4881C206.944 29.0129 208.693 28.8773 210.417 29.0894L244.093 33.232H264.751C266.512 33.232 268.256 32.8739 269.875 32.1794L291.328 22.9781C295.193 21.3204 299.621 21.6347 303.213 23.8218L326 37.696" stroke="#497EF9" stroke-width="3" stroke-linecap="round"/>
<circle cx="155.5" cy="30.5" r="5.5" fill="#225DE7"/>
<defs>
<linearGradient id="paint0_linear" x1="164" y1="0" x2="164" y2="72.5" gradientUnits="userSpaceOnUse">
<stop stop-color="#225DE7"/>
<stop offset="1" stop-color="white" stop-opacity="0"/>
</linearGradient>
</defs>
</svg>
