<svg viewBox="0 0 13 13" height="16" width="16" xmlns="http://www.w3.org/2000/svg" role="presentation" aria-hidden="true" tabindex="-1" disabled="disabled" clickable="false"><g fill="#ffffff" role="presentation" aria-hidden="true" tabindex="-1"><path d="M7.58 6.5l5.2-5.19a.79.79 0 0 0 0-1.09.79.79 0 0 0-1.09 0L6.5 5.42 1.31.22a.79.79 0 0 0-1.09 0 .79.79 0 0 0 0 1.09l5.2 5.19-5.2 5.19a.79.79 0 0 0 0 1.09.77.77 0 0 0 .55.22.76.76 0 0 0 .54-.22l5.19-5.2 5.19 5.2a.79.79 0 0 0 1.09 0 .79.79 0 0 0 0-1.09z" role="presentation" aria-hidden="true" tabindex="-1"></path></g></svg>