<svg width="31" height="31" viewBox="0 0 31 31" fill="none" xmlns="http://www.w3.org/2000/svg">
<circle opacity="0.1" cx="15.5" cy="15.5" r="15.5" fill="#225DE7"/>
<path d="M12.2083 9H16.9751C17.3619 9 17.7328 9.15365 18.0063 9.42714L20.8229 12.2437C21.0964 12.5172 21.25 12.8881 21.25 13.2749V21.5417C21.25 22.3471 20.5971 23 19.7917 23H12.2083C11.4029 23 10.75 22.3471 10.75 21.5417V10.4583C10.75 9.65292 11.4029 9 12.2083 9ZM12.2083 9.58333C11.7251 9.58333 11.3333 9.97508 11.3333 10.4583V21.5417C11.3333 22.0249 11.7251 22.4167 12.2083 22.4167H19.7917C20.2749 22.4167 20.6667 22.0249 20.6667 21.5417V13.2749C20.6667 13.0429 20.5745 12.8203 20.4104 12.6562L17.5938 9.83961C17.4297 9.67552 17.2071 9.58333 16.9751 9.58333H12.2083Z" fill="#225DE7"/>
<path fill-rule="evenodd" clip-rule="evenodd" d="M12.7918 10.4583H16.6335C16.7882 10.4583 16.9366 10.5197 17.046 10.6291L19.621 13.2041C19.7304 13.3135 19.7918 13.4618 19.7918 13.6165V20.9583C19.7918 21.2804 19.5307 21.5416 19.2085 21.5416H12.7918C12.4697 21.5416 12.2085 21.2804 12.2085 20.9583V11.0416C12.2085 10.7194 12.4697 10.4583 12.7918 10.4583Z" fill="#D8E1F9"/>
<path d="M13.6667 18.9167H18.3333C18.4944 18.9167 18.625 19.0473 18.625 19.2084C18.625 19.358 18.5124 19.4813 18.3673 19.4981L18.3333 19.5001H13.6667C13.5056 19.5001 13.375 19.3695 13.375 19.2084C13.375 19.0588 13.4876 18.9356 13.6327 18.9187L13.6667 18.9167H18.3333H13.6667ZM18.3333 17.4584C18.4944 17.4584 18.625 17.589 18.625 17.7501C18.625 17.8997 18.5124 18.0229 18.3673 18.0398L18.3333 18.0417H13.6667C13.5056 18.0417 13.375 17.9112 13.375 17.7501C13.375 17.6005 13.4876 17.4772 13.6327 17.4604L13.6667 17.4584H18.3333ZM18.3333 16.0001C18.4944 16.0001 18.625 16.1307 18.625 16.2917C18.625 16.4413 18.5124 16.5646 18.3673 16.5815L18.3333 16.5834H13.6667C13.5056 16.5834 13.375 16.4528 13.375 16.2917C13.375 16.1422 13.4876 16.0189 13.6327 16.002L13.6667 16.0001H18.3333ZM16.875 14.5417C17.0361 14.5417 17.1667 14.6723 17.1667 14.8334C17.1667 14.9945 17.0361 15.1251 16.875 15.1251H13.6667C13.5056 15.1251 13.375 14.9945 13.375 14.8334C13.375 14.6723 13.5056 14.5417 13.6667 14.5417H16.875Z" fill="#225DE7" fill-opacity="0.4"/>
</svg>
