<svg width="24" height="32" viewBox="0 0 24 32" fill="none" xmlns="http://www.w3.org/2000/svg">
<path d="M3.33333 0H14.2288C15.1128 0 15.9607 0.351189 16.5858 0.976311L23.0237 7.41421C23.6488 8.03934 24 8.88718 24 9.77124V28.6667C24 30.5076 22.5076 32 20.6667 32H3.33333C1.49238 32 0 30.5076 0 28.6667V3.33333C0 1.49238 1.49238 0 3.33333 0ZM3.33333 1.33333C2.22876 1.33333 1.33333 2.22876 1.33333 3.33333V28.6667C1.33333 29.7712 2.22876 30.6667 3.33333 30.6667H20.6667C21.7712 30.6667 22.6667 29.7712 22.6667 28.6667V9.77124C22.6667 9.2408 22.456 8.7321 22.0809 8.35702L15.643 1.91912C15.2679 1.54405 14.7592 1.33333 14.2288 1.33333H3.33333Z" fill="#225DE7"/>
<path fill-rule="evenodd" clip-rule="evenodd" d="M4.66683 3.33328H13.4479C13.8015 3.33328 14.1406 3.47376 14.3907 3.72381L20.2763 9.60942C20.5264 9.85947 20.6668 10.1986 20.6668 10.5522V27.3333C20.6668 28.0697 20.0699 28.6666 19.3335 28.6666H4.66683C3.93045 28.6666 3.3335 28.0697 3.3335 27.3333V4.66662C3.3335 3.93024 3.93045 3.33328 4.66683 3.33328Z" fill="#D8E1F9"/>
<path d="M6.66667 22.6667H17.3333C17.7015 22.6667 18 22.9652 18 23.3334C18 23.6753 17.7426 23.957 17.4111 23.9955L17.3333 24H6.66667C6.29848 24 6 23.7016 6 23.3334C6 22.9915 6.25736 22.7097 6.58892 22.6712L6.66667 22.6667H17.3333H6.66667ZM17.3333 19.3334C17.7015 19.3334 18 19.6318 18 20C18 20.3419 17.7426 20.6237 17.4111 20.6622L17.3333 20.6667H6.66667C6.29848 20.6667 6 20.3682 6 20C6 19.6581 6.25736 19.3764 6.58892 19.3379L6.66667 19.3334H17.3333ZM17.3333 16C17.7015 16 18 16.2985 18 16.6667C18 17.0086 17.7426 17.2904 17.4111 17.3289L17.3333 17.3334H6.66667C6.29848 17.3334 6 17.0349 6 16.6667C6 16.3248 6.25736 16.043 6.58892 16.0045L6.66667 16H17.3333ZM14 12.6667C14.3682 12.6667 14.6667 12.9652 14.6667 13.3334C14.6667 13.7016 14.3682 14 14 14H6.66667C6.29848 14 6 13.7016 6 13.3334C6 12.9652 6.29848 12.6667 6.66667 12.6667H14Z" fill="#225DE7" fill-opacity="0.4"/>
</svg>
