<?xml version="1.0" encoding="utf-8"?>
<!-- Generator: Adobe Illustrator 24.2.3, SVG Export Plug-In . SVG Version: 6.00 Build 0)  -->
<svg version="1.1" id="Layer_1" xmlns="http://www.w3.org/2000/svg" xmlns:xlink="http://www.w3.org/1999/xlink" x="0px" y="0px"
	 viewBox="0 0 328 60" style="enable-background:new 0 0 328 60;" xml:space="preserve">
<style type="text/css">
	.st0{fill:none;stroke:#FFFFFF;stroke-width:3;stroke-linecap:round;}
	.st1{fill:#FFFFFF;}
	.st2{font-family:'MyriadPro-Regular';}
	.st3{font-size:8px;}
</style>
<path class="st0" d="M18.3,44.6l25.9-10.2c2.7-1,5.7-1.3,8.6-0.6l5.9,1.4c4.6,1.1,9.6-0.2,12.6-3.2l27-26.5c4.6-4.5,13-4.8,18-0.5
	l0.6,0.5c1.7,1.4,3.8,2.4,6.2,2.8l22.2,3.9c1.5,0.3,2.9,0.8,4.2,1.5l20.5,11.2c3,1.6,6.6,2.1,10.1,1.3l28.1-6.6
	c1.6-0.4,3.2-0.5,4.8-0.3l31.5,3.2h19.3c1.6,0,3.3-0.3,4.8-0.8l20-7.1c3.6-1.3,7.7-1,11.1,0.6l21.3,10.6"/>
<line class="st0" x1="14.3" y1="0" x2="14.3" y2="48.1"/>
<line class="st0" x1="14.3" y1="48.1" x2="321.1" y2="48.1"/>
<text transform="matrix(1 0 0 1 20.1424 56.8467)" class="st1 st2 st3">Jan</text>
<text transform="matrix(1 0 0 1 1.9998 40.0123)" class="st1 st2 st3">10</text>
<text transform="matrix(1 0 0 1 1.9998 25.272)" class="st1 st2 st3">20</text>
<text transform="matrix(1 0 0 1 1.9998 12.049)" class="st1 st2 st3">30</text>
<text transform="matrix(1 0 0 1 49.0423 56.8467)" class="st1 st2 st3">Feb</text>
<text transform="matrix(1 0 0 1 78.9074 56.8467)" class="st1 st2 st3">Mar</text>
<text transform="matrix(1 0 0 1 106.9893 56.8467)" class="st1 st2 st3">Apr</text>
<text transform="matrix(1 0 0 1 136.8893 56.8467)" class="st1 st2 st3">May</text>
<text transform="matrix(1 0 0 1 167.7544 56.8467)" class="st1 st2 st3">Jun</text>
<text transform="matrix(1 0 0 1 199.4621 56.8467)" class="st1 st2 st3">Jul</text>
<text transform="matrix(1 0 0 1 228.362 56.8467)" class="st1 st2 st3">Aug</text>
<text transform="matrix(1 0 0 1 260.2272 56.8467)" class="st1 st2 st3">Sep</text>
<text transform="matrix(1 0 0 1 292.7426 56.8467)" class="st1 st2 st3">Oct</text>
</svg>
