<svg width="44" height="14" viewBox="0 0 44 14" fill="none" xmlns="http://www.w3.org/2000/svg">
<path d="M17.832 10.244V8.036H15.804V6.62H17.832V4.412H19.368V6.62H21.396V8.036H19.368V10.244H17.832ZM28.8073 11H22.8793V9.356L25.4593 7.148C25.6913 6.948 25.8873 6.768 26.0473 6.608C26.2073 6.44 26.3353 6.28 26.4313 6.128C26.5353 5.968 26.6073 5.812 26.6473 5.66C26.6953 5.508 26.7193 5.344 26.7193 5.168V5C26.7193 4.84 26.6873 4.7 26.6233 4.58C26.5593 4.46 26.4753 4.36 26.3713 4.28C26.2673 4.2 26.1473 4.14 26.0113 4.1C25.8833 4.06 25.7513 4.04 25.6153 4.04C25.4153 4.04 25.2393 4.072 25.0873 4.136C24.9433 4.2 24.8153 4.288 24.7033 4.4C24.5993 4.504 24.5113 4.628 24.4393 4.772C24.3673 4.908 24.3113 5.056 24.2713 5.216L22.6993 4.616C22.7953 4.328 22.9273 4.056 23.0953 3.8C23.2633 3.536 23.4713 3.308 23.7193 3.116C23.9753 2.916 24.2753 2.76 24.6193 2.648C24.9633 2.536 25.3513 2.48 25.7833 2.48C26.2393 2.48 26.6433 2.544 26.9953 2.672C27.3473 2.8 27.6433 2.976 27.8833 3.2C28.1313 3.424 28.3193 3.692 28.4473 4.004C28.5753 4.308 28.6393 4.64 28.6393 5C28.6393 5.36 28.5793 5.688 28.4593 5.984C28.3393 6.28 28.1753 6.56 27.9673 6.824C27.7673 7.08 27.5313 7.324 27.2593 7.556C26.9873 7.788 26.7033 8.024 26.4073 8.264L24.8473 9.488H28.8073V11ZM32.9906 11.144C31.8946 11.144 31.0826 10.764 30.5546 10.004C30.0266 9.244 29.7626 8.18 29.7626 6.812C29.7626 5.444 30.0266 4.38 30.5546 3.62C31.0826 2.86 31.8946 2.48 32.9906 2.48C34.0866 2.48 34.8986 2.86 35.4266 3.62C35.9546 4.38 36.2186 5.444 36.2186 6.812C36.2186 8.18 35.9546 9.244 35.4266 10.004C34.8986 10.764 34.0866 11.144 32.9906 11.144ZM32.9906 9.62C33.4706 9.62 33.8026 9.444 33.9866 9.092C34.1706 8.74 34.2626 8.244 34.2626 7.604V6.02C34.2626 5.38 34.1706 4.884 33.9866 4.532C33.8026 4.18 33.4706 4.004 32.9906 4.004C32.5106 4.004 32.1786 4.18 31.9946 4.532C31.8106 4.884 31.7186 5.38 31.7186 6.02V7.604C31.7186 8.244 31.8106 8.74 31.9946 9.092C32.1786 9.444 32.5106 9.62 32.9906 9.62ZM40.1859 11.144C39.0899 11.144 38.2779 10.764 37.7499 10.004C37.2219 9.244 36.9579 8.18 36.9579 6.812C36.9579 5.444 37.2219 4.38 37.7499 3.62C38.2779 2.86 39.0899 2.48 40.1859 2.48C41.2819 2.48 42.0939 2.86 42.6219 3.62C43.1499 4.38 43.4139 5.444 43.4139 6.812C43.4139 8.18 43.1499 9.244 42.6219 10.004C42.0939 10.764 41.2819 11.144 40.1859 11.144ZM40.1859 9.62C40.6659 9.62 40.9979 9.444 41.1819 9.092C41.3659 8.74 41.4579 8.244 41.4579 7.604V6.02C41.4579 5.38 41.3659 4.884 41.1819 4.532C40.9979 4.18 40.6659 4.004 40.1859 4.004C39.7059 4.004 39.3739 4.18 39.1899 4.532C39.0059 4.884 38.9139 5.38 38.9139 6.02V7.604C38.9139 8.244 39.0059 8.74 39.1899 9.092C39.3739 9.444 39.7059 9.62 40.1859 9.62Z" fill="#00CC57"/>
<path d="M4.0835 9.91671L9.91683 4.08337" stroke="#00CC57" stroke-width="2" stroke-linecap="round" stroke-linejoin="round"/>
<path d="M4.0835 4.08337H9.91683V9.91671" stroke="#00CC57" stroke-width="2" stroke-linecap="round" stroke-linejoin="round"/>
</svg>
