<svg width="328" height="72" viewBox="0 0 328 72" fill="none" xmlns="http://www.w3.org/2000/svg">
<path d="M283.795 49.7712L290.039 47.9952C293.141 47.1127 296.461 47.4151 299.353 48.8436L319.757 58.9225C324.193 61.1132 327 65.6313 327 70.5781V72H2V38L25.8141 23.7464C29.3928 21.6044 33.7818 21.3096 37.6149 22.9536L59.1251 32.1794C60.7443 32.8739 62.4877 33.232 64.2495 33.232H84.9072L118.583 29.0894C120.307 28.8773 122.056 29.0129 123.727 29.4881L153.785 38.0382C157.447 39.0799 161.382 38.4638 164.55 36.3526L186.526 21.7094C187.888 20.8019 189.409 20.1598 191.009 19.8167L214.798 14.715C217.312 14.1758 219.61 12.9031 221.401 11.0578L222.085 10.3531C227.457 4.81785 236.439 5.15057 241.387 11.0681L270.265 45.606C273.558 49.5436 278.858 51.1754 283.795 49.7712Z" fill="url(#paint0_linear)"/>
<path d="M326 62L298.296 48.7464C295.437 47.3788 292.177 47.1025 289.129 47.9696L282.795 49.7712C277.858 51.1754 272.558 49.5436 269.265 45.606L240.387 11.0681C235.439 5.15057 226.457 4.81785 221.085 10.3531L220.401 11.0578C218.61 12.9031 216.312 14.1758 213.798 14.715L190.009 19.8167C188.409 20.1598 186.888 20.8019 185.526 21.7094L163.55 36.3526C160.382 38.4638 156.447 39.0799 152.785 38.0382L122.727 29.4881C121.056 29.0129 119.307 28.8773 117.583 29.0894L83.9072 33.232H63.2495C61.4877 33.232 59.7443 32.8739 58.1251 32.1794L36.672 22.9781C32.8071 21.3204 28.379 21.6347 24.787 23.8218L1.99999 37.696" stroke="#00C4C4" stroke-width="3" stroke-linecap="round"/>
<circle cx="233.5" cy="6.5" r="5.5" fill="#00C4C4"/>
<defs>
<linearGradient id="paint0_linear" x1="165" y1="0" x2="165" y2="72.5" gradientUnits="userSpaceOnUse">
<stop stop-color="#00C4C4"/>
<stop offset="1" stop-color="white" stop-opacity="0"/>
</linearGradient>
</defs>
</svg>
