<svg width="35" height="35" viewBox="0 0 35 35" fill="none" xmlns="http://www.w3.org/2000/svg">
<path d="M5.76289 7.23552C7.63254 2.84927 11.96 0 16.7521 0H18.2478C23.04 0 27.3675 2.84927 29.2371 7.23552L34.0415 18.5067C37.3762 26.3301 31.5996 35 23.0522 35H11.9478C3.4004 35 -2.37624 26.3301 0.958509 18.5067L5.76289 7.23552Z" fill="#225DE7"/>
<path d="M18.2788 10.5001H14.7263L9.41797 24.7917H12.3376L13.5421 21.3413H19.2996L20.5042 24.7917H23.5667L18.2788 10.5001ZM14.4201 18.8709L16.4209 13.1338L18.4421 18.8709H14.4201Z" fill="white"/>
<path d="M29.6255 25.0367C32.6268 25.0367 34.8114 23.2605 34.8114 20.7696C34.8114 19.1363 33.6884 17.8705 32.0959 17.3805C33.4434 16.8292 34.3418 15.6859 34.3418 14.2363C34.3418 11.9905 32.3409 10.2755 29.6255 10.2551C26.8897 10.2346 24.9093 11.9905 24.9093 14.2363C24.9093 15.6859 25.8076 16.8292 27.1755 17.3601C25.5626 17.8501 24.4397 19.1363 24.4397 20.7696C24.4397 23.2605 26.6447 25.0367 29.6255 25.0367ZM29.6255 16.3801C28.4618 16.3801 27.543 15.543 27.543 14.4609C27.543 13.338 28.4414 12.5213 29.6255 12.5213C30.8301 12.5213 31.708 13.338 31.708 14.4609C31.708 15.543 30.7893 16.3801 29.6255 16.3801ZM29.6255 18.5238C31.0343 18.5238 32.1164 19.4426 32.1164 20.688C32.1164 21.8926 31.0547 22.7705 29.6255 22.7705C28.1964 22.7705 27.1347 21.8926 27.1347 20.688C27.1347 19.4426 28.1964 18.5238 29.6255 18.5238Z" fill="white"/>
</svg>
