<svg width="196" height="35" xmlns="http://www.w3.org/2000/svg">
 <style type="text/css">.st0{fill:#225DE7;}
	.st1{fill:#FFFFFF;}</style>

 <g>
  <title>background</title>
  <rect fill="none" id="canvas_background" height="602" width="802" y="-1" x="-1"/>
 </g>
 <g>
  <title>Layer 1</title>
  <path id="svg_1" d="m5.8,7.2c1.8,-4.4 6.2,-7.2 11,-7.2l1.5,0c4.8,0 9.1,2.8 11,7.2l4.7,11.3c3.3,7.8 -2.4,16.5 -11,16.5l-11.1,0c-8.5,0 -14.3,-8.7 -10.9,-16.5l4.8,-11.3z" class="st0"/>
  <path id="svg_2" d="m18.3,10.5l-3.6,0l-5.3,14.3l2.9,0l1.2,-3.5l5.8,0l1.2,3.5l3.1,0l-5.3,-14.3zm-3.9,8.4l2,-5.7l2,5.7l-4,0z" class="st1"/>
  <path id="svg_3" d="m29.6,25c3,0 5.2,-1.8 5.2,-4.3c0,-1.6 -1.1,-2.9 -2.7,-3.4c1.3,-0.6 2.2,-1.7 2.2,-3.1c0,-2.2 -2,-4 -4.7,-4c-2.7,0 -4.7,1.7 -4.7,4c0,1.4 0.9,2.6 2.3,3.1c-1.6,0.5 -2.7,1.8 -2.7,3.4c-0.1,2.6 2.1,4.3 5.1,4.3zm0,-8.6c-1.2,0 -2.1,-0.8 -2.1,-1.9c0,-1.1 0.9,-1.9 2.1,-1.9c1.2,0 2.1,0.8 2.1,1.9c0,1 -0.9,1.9 -2.1,1.9zm0,2.1c1.4,0 2.5,0.9 2.5,2.2c0,1.2 -1.1,2.1 -2.5,2.1c-1.4,0 -2.5,-0.9 -2.5,-2.1c0,-1.3 1.1,-2.2 2.5,-2.2z" class="st1"/>
  <text font-style="normal" font-weight="bold" xml:space="preserve" text-anchor="start" font-family="sans-serif" font-size="26" id="svg_17" y="27.95313" x="42.5" stroke-opacity="null" stroke-width="0" stroke="null" fill="#3965d7">ABBREVIA8</text>
 </g>
</svg>