<svg width="12" height="12" viewBox="0 0 12 12" fill="none" xmlns="http://www.w3.org/2000/svg">
<path d="M9 10.5C9.82843 10.5 10.5 9.82843 10.5 9C10.5 8.17157 9.82843 7.5 9 7.5C8.17157 7.5 7.5 8.17157 7.5 9C7.5 9.82843 8.17157 10.5 9 10.5Z" stroke="#225DE7" stroke-linecap="round" stroke-linejoin="round"/>
<path d="M3 4.5C3.82843 4.5 4.5 3.82843 4.5 3C4.5 2.17157 3.82843 1.5 3 1.5C2.17157 1.5 1.5 2.17157 1.5 3C1.5 3.82843 2.17157 4.5 3 4.5Z" stroke="#225DE7" stroke-linecap="round" stroke-linejoin="round"/>
<path d="M6.5 3H8C8.26522 3 8.51957 3.10536 8.70711 3.29289C8.89464 3.48043 9 3.73478 9 4V7.5" stroke="#225DE7" stroke-linecap="round" stroke-linejoin="round"/>
<path d="M3 4.5V10.5" stroke="#225DE7" stroke-linecap="round" stroke-linejoin="round"/>
</svg>
