<svg width="30" height="30" viewBox="0 0 30 30" fill="none" xmlns="http://www.w3.org/2000/svg">
<circle cx="15" cy="15" r="15" fill="#00C4C4"/>
<path d="M14.3333 18.3333H15.6666V14.3333H14.3333V18.3333ZM14.9999 8.33334C11.3199 8.33334 8.33325 11.32 8.33325 15C8.33325 18.68 11.3199 21.6667 14.9999 21.6667C18.6799 21.6667 21.6666 18.68 21.6666 15C21.6666 11.32 18.6799 8.33334 14.9999 8.33334ZM14.9999 20.3333C12.0599 20.3333 9.66659 17.94 9.66659 15C9.66659 12.06 12.0599 9.66668 14.9999 9.66668C17.9399 9.66668 20.3333 12.06 20.3333 15C20.3333 17.94 17.9399 20.3333 14.9999 20.3333ZM14.3333 13H15.6666V11.6667H14.3333V13Z" fill="white"/>
</svg>
