<svg width="331" height="41" viewBox="0 0 331 41" fill="none" xmlns="http://www.w3.org/2000/svg">
<g style="mix-blend-mode:multiply">
<rect width="331" height="41" rx="5" fill="#113895"/>
</g>
<path d="M49.757 25.156C49.0203 25.156 48.392 25.0173 47.872 24.74C47.352 24.454 46.91 24.064 46.546 23.57L47.352 22.894C47.6727 23.3187 48.028 23.6437 48.418 23.869C48.808 24.0857 49.2673 24.194 49.796 24.194C50.446 24.194 50.94 24.038 51.278 23.726C51.6247 23.414 51.798 22.998 51.798 22.478C51.798 22.0447 51.668 21.711 51.408 21.477C51.148 21.243 50.719 21.0567 50.121 20.918L49.38 20.749C48.548 20.5583 47.911 20.2723 47.469 19.891C47.0357 19.501 46.819 18.955 46.819 18.253C46.819 17.8543 46.8927 17.499 47.04 17.187C47.1873 16.875 47.391 16.615 47.651 16.407C47.9197 16.199 48.236 16.043 48.6 15.939C48.9727 15.8263 49.38 15.77 49.822 15.77C50.5067 15.77 51.0917 15.8957 51.577 16.147C52.071 16.3983 52.487 16.7667 52.825 17.252L52.006 17.85C51.7547 17.5033 51.4513 17.2303 51.096 17.031C50.7407 16.8317 50.2987 16.732 49.77 16.732C49.1893 16.732 48.73 16.8577 48.392 17.109C48.0627 17.3517 47.898 17.72 47.898 18.214C47.898 18.6473 48.0367 18.9767 48.314 19.202C48.6 19.4187 49.029 19.592 49.601 19.722L50.342 19.891C51.2347 20.0903 51.8803 20.3937 52.279 20.801C52.6777 21.2083 52.877 21.75 52.877 22.426C52.877 22.842 52.8033 23.219 52.656 23.557C52.5173 23.895 52.3137 24.181 52.045 24.415C51.7763 24.649 51.447 24.831 51.057 24.961C50.6757 25.091 50.2423 25.156 49.757 25.156ZM57.1807 25.156C56.7214 25.156 56.3054 25.0737 55.9327 24.909C55.5687 24.7443 55.2524 24.5103 54.9837 24.207C54.7237 23.895 54.52 23.5267 54.3727 23.102C54.234 22.6687 54.1647 22.1833 54.1647 21.646C54.1647 21.1173 54.234 20.6363 54.3727 20.203C54.52 19.7697 54.7237 19.4013 54.9837 19.098C55.2524 18.786 55.5687 18.5477 55.9327 18.383C56.3054 18.2183 56.7214 18.136 57.1807 18.136C57.6314 18.136 58.0344 18.2183 58.3897 18.383C58.745 18.5477 59.0484 18.7773 59.2997 19.072C59.551 19.358 59.7417 19.7003 59.8717 20.099C60.0104 20.4977 60.0797 20.9353 60.0797 21.412V21.906H55.2567V22.218C55.2567 22.504 55.3 22.7727 55.3867 23.024C55.482 23.2667 55.612 23.479 55.7767 23.661C55.95 23.843 56.158 23.986 56.4007 24.09C56.652 24.194 56.9337 24.246 57.2457 24.246C57.6704 24.246 58.0387 24.1463 58.3507 23.947C58.6714 23.7477 58.9184 23.4617 59.0917 23.089L59.8327 23.622C59.616 24.0813 59.278 24.454 58.8187 24.74C58.3594 25.0173 57.8134 25.156 57.1807 25.156ZM57.1807 19.007C56.8947 19.007 56.6347 19.059 56.4007 19.163C56.1667 19.2583 55.963 19.397 55.7897 19.579C55.625 19.761 55.495 19.9777 55.3997 20.229C55.3044 20.4717 55.2567 20.7403 55.2567 21.035V21.126H58.9617V20.983C58.9617 20.385 58.797 19.9083 58.4677 19.553C58.147 19.189 57.718 19.007 57.1807 19.007ZM66.6685 25C66.2785 25 65.9968 24.896 65.8235 24.688C65.6588 24.48 65.5548 24.22 65.5115 23.908H65.4465C65.2991 24.324 65.0565 24.636 64.7185 24.844C64.3805 25.052 63.9775 25.156 63.5095 25.156C62.7988 25.156 62.2441 24.974 61.8455 24.61C61.4555 24.246 61.2605 23.752 61.2605 23.128C61.2605 22.4953 61.4901 22.01 61.9495 21.672C62.4175 21.334 63.1411 21.165 64.1205 21.165H65.4465V20.502C65.4465 20.0253 65.3165 19.6613 65.0565 19.41C64.7965 19.1587 64.3978 19.033 63.8605 19.033C63.4531 19.033 63.1108 19.124 62.8335 19.306C62.5648 19.488 62.3395 19.7307 62.1575 20.034L61.5335 19.449C61.7155 19.085 62.0058 18.7773 62.4045 18.526C62.8031 18.266 63.3058 18.136 63.9125 18.136C64.7271 18.136 65.3598 18.3353 65.8105 18.734C66.2611 19.1327 66.4865 19.6873 66.4865 20.398V24.09H67.2535V25H66.6685ZM63.6785 24.272C63.9385 24.272 64.1768 24.2417 64.3935 24.181C64.6101 24.1203 64.7965 24.0337 64.9525 23.921C65.1085 23.8083 65.2298 23.6783 65.3165 23.531C65.4031 23.3837 65.4465 23.2233 65.4465 23.05V21.945H64.0685C63.4705 21.945 63.0328 22.0317 62.7555 22.205C62.4868 22.3783 62.3525 22.6297 62.3525 22.959V23.232C62.3525 23.5613 62.4695 23.817 62.7035 23.999C62.9461 24.181 63.2711 24.272 63.6785 24.272ZM68.7378 25V18.292H69.7778V19.527H69.8428C69.9641 19.2063 70.1808 18.9203 70.4928 18.669C70.8048 18.4177 71.2338 18.292 71.7798 18.292H72.1828V19.332H71.5718C71.0085 19.332 70.5665 19.4403 70.2458 19.657C69.9338 19.865 69.7778 20.1293 69.7778 20.45V25H68.7378ZM75.9438 25.156C75.4758 25.156 75.0554 25.0737 74.6828 24.909C74.3101 24.7443 73.9938 24.5103 73.7338 24.207C73.4824 23.9037 73.2874 23.5353 73.1488 23.102C73.0188 22.6687 72.9538 22.1833 72.9538 21.646C72.9538 21.1087 73.0188 20.6233 73.1488 20.19C73.2874 19.7567 73.4824 19.3883 73.7338 19.085C73.9938 18.7817 74.3101 18.5477 74.6828 18.383C75.0554 18.2183 75.4758 18.136 75.9438 18.136C76.6111 18.136 77.1441 18.2833 77.5428 18.578C77.9501 18.864 78.2534 19.241 78.4528 19.709L77.5818 20.151C77.4604 19.8043 77.2611 19.5357 76.9838 19.345C76.7064 19.1543 76.3598 19.059 75.9438 19.059C75.6318 19.059 75.3588 19.111 75.1248 19.215C74.8908 19.3103 74.6958 19.449 74.5398 19.631C74.3838 19.8043 74.2668 20.0167 74.1888 20.268C74.1108 20.5107 74.0718 20.7793 74.0718 21.074V22.218C74.0718 22.8073 74.2278 23.2927 74.5398 23.674C74.8604 24.0467 75.3284 24.233 75.9438 24.233C76.7844 24.233 77.3911 23.843 77.7638 23.063L78.5178 23.57C78.3011 24.0553 77.9761 24.441 77.5428 24.727C77.1181 25.013 76.5851 25.156 75.9438 25.156ZM79.9859 15.38H81.0259V19.384H81.0779C81.2425 19.0027 81.4722 18.6993 81.7669 18.474C82.0702 18.2487 82.4732 18.136 82.9759 18.136C83.6692 18.136 84.2152 18.3613 84.6139 18.812C85.0212 19.254 85.2249 19.8823 85.2249 20.697V25H84.1849V20.879C84.1849 19.6743 83.6779 19.072 82.6639 19.072C82.4559 19.072 82.2522 19.098 82.0529 19.15C81.8622 19.202 81.6889 19.28 81.5329 19.384C81.3769 19.488 81.2512 19.6223 81.1559 19.787C81.0692 19.943 81.0259 20.1293 81.0259 20.346V25H79.9859V15.38ZM91.8118 25L89.6018 15.926H90.7588L91.7338 20.294L92.4878 23.687H92.5138L93.3588 20.294L94.5028 15.926H95.7508L96.8558 20.294L97.7008 23.674H97.7398L98.5198 20.294L99.5468 15.926H100.665L98.3378 25H97.1288L95.9458 20.476L95.1138 17.148H95.0878L94.2298 20.476L93.0208 25H91.8118ZM104.369 25.156C103.919 25.156 103.507 25.0737 103.134 24.909C102.762 24.7443 102.441 24.5103 102.172 24.207C101.912 23.895 101.709 23.5267 101.561 23.102C101.414 22.6687 101.34 22.1833 101.34 21.646C101.34 21.1173 101.414 20.6363 101.561 20.203C101.709 19.7697 101.912 19.4013 102.172 19.098C102.441 18.786 102.762 18.5477 103.134 18.383C103.507 18.2183 103.919 18.136 104.369 18.136C104.82 18.136 105.227 18.2183 105.591 18.383C105.964 18.5477 106.285 18.786 106.553 19.098C106.822 19.4013 107.03 19.7697 107.177 20.203C107.325 20.6363 107.398 21.1173 107.398 21.646C107.398 22.1833 107.325 22.6687 107.177 23.102C107.03 23.5267 106.822 23.895 106.553 24.207C106.285 24.5103 105.964 24.7443 105.591 24.909C105.227 25.0737 104.82 25.156 104.369 25.156ZM104.369 24.233C104.933 24.233 105.392 24.0597 105.747 23.713C106.103 23.3663 106.28 22.8377 106.28 22.127V21.165C106.28 20.4543 106.103 19.9257 105.747 19.579C105.392 19.2323 104.933 19.059 104.369 19.059C103.806 19.059 103.347 19.2323 102.991 19.579C102.636 19.9257 102.458 20.4543 102.458 21.165V22.127C102.458 22.8377 102.636 23.3663 102.991 23.713C103.347 24.0597 103.806 24.233 104.369 24.233ZM109.109 25V18.292H110.149V19.527H110.214C110.335 19.2063 110.552 18.9203 110.864 18.669C111.176 18.4177 111.605 18.292 112.151 18.292H112.554V19.332H111.943C111.38 19.332 110.938 19.4403 110.617 19.657C110.305 19.865 110.149 20.1293 110.149 20.45V25H109.109ZM113.882 15.38H114.922V21.477H114.974L116.001 20.333L117.899 18.292H119.16L116.677 20.944L119.407 25H118.146L115.923 21.581L114.922 22.608V25H113.882V15.38ZM122.626 25.156C122.002 25.156 121.478 25.039 121.053 24.805C120.637 24.5623 120.277 24.2417 119.974 23.843L120.715 23.245C120.975 23.5743 121.265 23.83 121.586 24.012C121.907 24.1853 122.279 24.272 122.704 24.272C123.146 24.272 123.488 24.1767 123.731 23.986C123.982 23.7953 124.108 23.5267 124.108 23.18C124.108 22.92 124.021 22.699 123.848 22.517C123.683 22.3263 123.38 22.1963 122.938 22.127L122.405 22.049C122.093 22.0057 121.807 21.9407 121.547 21.854C121.287 21.7587 121.057 21.6373 120.858 21.49C120.667 21.334 120.516 21.1433 120.403 20.918C120.299 20.6927 120.247 20.424 120.247 20.112C120.247 19.7827 120.308 19.4967 120.429 19.254C120.55 19.0027 120.715 18.7947 120.923 18.63C121.14 18.4653 121.395 18.344 121.69 18.266C121.985 18.1793 122.301 18.136 122.639 18.136C123.185 18.136 123.64 18.2313 124.004 18.422C124.377 18.6127 124.702 18.877 124.979 19.215L124.29 19.839C124.143 19.631 123.926 19.4447 123.64 19.28C123.354 19.1067 122.994 19.02 122.561 19.02C122.128 19.02 121.798 19.1153 121.573 19.306C121.356 19.488 121.248 19.7393 121.248 20.06C121.248 20.3893 121.356 20.6277 121.573 20.775C121.798 20.9223 122.119 21.0307 122.535 21.1L123.055 21.178C123.8 21.2907 124.329 21.5073 124.641 21.828C124.953 22.14 125.109 22.5517 125.109 23.063C125.109 23.713 124.888 24.2243 124.446 24.597C124.004 24.9697 123.397 25.156 122.626 25.156ZM126.946 18.292H127.986V19.384H128.038C128.211 18.9593 128.462 18.6473 128.792 18.448C129.13 18.24 129.533 18.136 130.001 18.136C130.417 18.136 130.794 18.2183 131.132 18.383C131.47 18.5477 131.756 18.7817 131.99 19.085C132.232 19.3883 132.414 19.7567 132.536 20.19C132.666 20.6233 132.731 21.1087 132.731 21.646C132.731 22.1833 132.666 22.6687 132.536 23.102C132.414 23.5353 132.232 23.9037 131.99 24.207C131.756 24.5103 131.47 24.7443 131.132 24.909C130.794 25.0737 130.417 25.156 130.001 25.156C129.091 25.156 128.436 24.74 128.038 23.908H127.986V27.6H126.946V18.292ZM129.715 24.22C130.304 24.22 130.768 24.038 131.106 23.674C131.444 23.3013 131.613 22.816 131.613 22.218V21.074C131.613 20.476 131.444 19.995 131.106 19.631C130.768 19.2583 130.304 19.072 129.715 19.072C129.481 19.072 129.255 19.1067 129.039 19.176C128.831 19.2367 128.649 19.3233 128.493 19.436C128.337 19.5487 128.211 19.6873 128.116 19.852C128.029 20.008 127.986 20.177 127.986 20.359V22.855C127.986 23.0717 128.029 23.2667 128.116 23.44C128.211 23.6047 128.337 23.7477 128.493 23.869C128.649 23.9817 128.831 24.0683 129.039 24.129C129.255 24.1897 129.481 24.22 129.715 24.22ZM139.362 25C138.972 25 138.69 24.896 138.517 24.688C138.352 24.48 138.248 24.22 138.205 23.908H138.14C137.993 24.324 137.75 24.636 137.412 24.844C137.074 25.052 136.671 25.156 136.203 25.156C135.492 25.156 134.938 24.974 134.539 24.61C134.149 24.246 133.954 23.752 133.954 23.128C133.954 22.4953 134.184 22.01 134.643 21.672C135.111 21.334 135.835 21.165 136.814 21.165H138.14V20.502C138.14 20.0253 138.01 19.6613 137.75 19.41C137.49 19.1587 137.091 19.033 136.554 19.033C136.147 19.033 135.804 19.124 135.527 19.306C135.258 19.488 135.033 19.7307 134.851 20.034L134.227 19.449C134.409 19.085 134.699 18.7773 135.098 18.526C135.497 18.266 135.999 18.136 136.606 18.136C137.421 18.136 138.053 18.3353 138.504 18.734C138.955 19.1327 139.18 19.6873 139.18 20.398V24.09H139.947V25H139.362ZM136.372 24.272C136.632 24.272 136.87 24.2417 137.087 24.181C137.304 24.1203 137.49 24.0337 137.646 23.921C137.802 23.8083 137.923 23.6783 138.01 23.531C138.097 23.3837 138.14 23.2233 138.14 23.05V21.945H136.762C136.164 21.945 135.726 22.0317 135.449 22.205C135.18 22.3783 135.046 22.6297 135.046 22.959V23.232C135.046 23.5613 135.163 23.817 135.397 23.999C135.64 24.181 135.965 24.272 136.372 24.272ZM143.927 25.156C143.459 25.156 143.039 25.0737 142.666 24.909C142.294 24.7443 141.977 24.5103 141.717 24.207C141.466 23.9037 141.271 23.5353 141.132 23.102C141.002 22.6687 140.937 22.1833 140.937 21.646C140.937 21.1087 141.002 20.6233 141.132 20.19C141.271 19.7567 141.466 19.3883 141.717 19.085C141.977 18.7817 142.294 18.5477 142.666 18.383C143.039 18.2183 143.459 18.136 143.927 18.136C144.595 18.136 145.128 18.2833 145.526 18.578C145.934 18.864 146.237 19.241 146.436 19.709L145.565 20.151C145.444 19.8043 145.245 19.5357 144.967 19.345C144.69 19.1543 144.343 19.059 143.927 19.059C143.615 19.059 143.342 19.111 143.108 19.215C142.874 19.3103 142.679 19.449 142.523 19.631C142.367 19.8043 142.25 20.0167 142.172 20.268C142.094 20.5107 142.055 20.7793 142.055 21.074V22.218C142.055 22.8073 142.211 23.2927 142.523 23.674C142.844 24.0467 143.312 24.233 143.927 24.233C144.768 24.233 145.375 23.843 145.747 23.063L146.501 23.57C146.285 24.0553 145.96 24.441 145.526 24.727C145.102 25.013 144.569 25.156 143.927 25.156ZM150.415 25.156C149.956 25.156 149.54 25.0737 149.167 24.909C148.803 24.7443 148.487 24.5103 148.218 24.207C147.958 23.895 147.754 23.5267 147.607 23.102C147.468 22.6687 147.399 22.1833 147.399 21.646C147.399 21.1173 147.468 20.6363 147.607 20.203C147.754 19.7697 147.958 19.4013 148.218 19.098C148.487 18.786 148.803 18.5477 149.167 18.383C149.54 18.2183 149.956 18.136 150.415 18.136C150.866 18.136 151.269 18.2183 151.624 18.383C151.979 18.5477 152.283 18.7773 152.534 19.072C152.785 19.358 152.976 19.7003 153.106 20.099C153.245 20.4977 153.314 20.9353 153.314 21.412V21.906H148.491V22.218C148.491 22.504 148.534 22.7727 148.621 23.024C148.716 23.2667 148.846 23.479 149.011 23.661C149.184 23.843 149.392 23.986 149.635 24.09C149.886 24.194 150.168 24.246 150.48 24.246C150.905 24.246 151.273 24.1463 151.585 23.947C151.906 23.7477 152.153 23.4617 152.326 23.089L153.067 23.622C152.85 24.0813 152.512 24.454 152.053 24.74C151.594 25.0173 151.048 25.156 150.415 25.156ZM150.415 19.007C150.129 19.007 149.869 19.059 149.635 19.163C149.401 19.2583 149.197 19.397 149.024 19.579C148.859 19.761 148.729 19.9777 148.634 20.229C148.539 20.4717 148.491 20.7403 148.491 21.035V21.126H152.196V20.983C152.196 20.385 152.031 19.9083 151.702 19.553C151.381 19.189 150.952 19.007 150.415 19.007ZM154.04 26.963L157.433 15.38H158.369L154.976 26.963H154.04ZM163.557 16.888V25H162.465V16.888H159.579V15.926H166.443V16.888H163.557ZM171.798 25C171.408 25 171.127 24.896 170.953 24.688C170.789 24.48 170.685 24.22 170.641 23.908H170.576C170.429 24.324 170.186 24.636 169.848 24.844C169.51 25.052 169.107 25.156 168.639 25.156C167.929 25.156 167.374 24.974 166.975 24.61C166.585 24.246 166.39 23.752 166.39 23.128C166.39 22.4953 166.62 22.01 167.079 21.672C167.547 21.334 168.271 21.165 169.25 21.165H170.576V20.502C170.576 20.0253 170.446 19.6613 170.186 19.41C169.926 19.1587 169.528 19.033 168.99 19.033C168.583 19.033 168.241 19.124 167.963 19.306C167.695 19.488 167.469 19.7307 167.287 20.034L166.663 19.449C166.845 19.085 167.136 18.7773 167.534 18.526C167.933 18.266 168.436 18.136 169.042 18.136C169.857 18.136 170.49 18.3353 170.94 18.734C171.391 19.1327 171.616 19.6873 171.616 20.398V24.09H172.383V25H171.798ZM168.808 24.272C169.068 24.272 169.307 24.2417 169.523 24.181C169.74 24.1203 169.926 24.0337 170.082 23.921C170.238 23.8083 170.36 23.6783 170.446 23.531C170.533 23.3837 170.576 23.2233 170.576 23.05V21.945H169.198C168.6 21.945 168.163 22.0317 167.885 22.205C167.617 22.3783 167.482 22.6297 167.482 22.959V23.232C167.482 23.5613 167.599 23.817 167.833 23.999C168.076 24.181 168.401 24.272 168.808 24.272ZM179.523 25.741C179.523 26.4343 179.25 26.9413 178.704 27.262C178.166 27.5913 177.356 27.756 176.273 27.756C175.224 27.756 174.47 27.613 174.011 27.327C173.551 27.041 173.322 26.6337 173.322 26.105C173.322 25.741 173.417 25.455 173.608 25.247C173.798 25.0477 174.058 24.9003 174.388 24.805V24.662C173.989 24.4713 173.79 24.1593 173.79 23.726C173.79 23.388 173.898 23.1323 174.115 22.959C174.331 22.777 174.609 22.6427 174.947 22.556V22.504C174.548 22.3133 174.236 22.0403 174.011 21.685C173.794 21.3297 173.686 20.918 173.686 20.45C173.686 20.112 173.746 19.8 173.868 19.514C173.989 19.228 174.158 18.9853 174.375 18.786C174.6 18.578 174.864 18.4177 175.168 18.305C175.48 18.1923 175.826 18.136 176.208 18.136C176.684 18.136 177.109 18.2227 177.482 18.396V18.279C177.482 18.019 177.542 17.8067 177.664 17.642C177.785 17.4687 177.984 17.382 178.262 17.382H179.263V18.292H177.989V18.721C178.231 18.929 178.418 19.1803 178.548 19.475C178.686 19.761 178.756 20.086 178.756 20.45C178.756 20.788 178.695 21.1 178.574 21.386C178.452 21.672 178.279 21.919 178.054 22.127C177.837 22.3263 177.573 22.4823 177.261 22.595C176.949 22.7077 176.602 22.764 176.221 22.764C176.004 22.764 175.787 22.7423 175.571 22.699C175.345 22.7597 175.142 22.8507 174.96 22.972C174.778 23.0847 174.687 23.245 174.687 23.453C174.687 23.6523 174.782 23.7867 174.973 23.856C175.163 23.9253 175.41 23.96 175.714 23.96H177.144C177.976 23.96 178.578 24.1203 178.951 24.441C179.332 24.753 179.523 25.1863 179.523 25.741ZM178.548 25.819C178.548 25.5503 178.444 25.3337 178.236 25.169C178.036 25.013 177.677 24.935 177.157 24.935H174.921C174.505 25.1257 174.297 25.429 174.297 25.845C174.297 26.1397 174.405 26.391 174.622 26.599C174.847 26.807 175.224 26.911 175.753 26.911H176.715C177.295 26.911 177.746 26.82 178.067 26.638C178.387 26.456 178.548 26.183 178.548 25.819ZM176.221 21.932C176.663 21.932 177.014 21.828 177.274 21.62C177.534 21.4033 177.664 21.074 177.664 20.632V20.268C177.664 19.826 177.534 19.501 177.274 19.293C177.014 19.0763 176.663 18.968 176.221 18.968C175.779 18.968 175.428 19.0763 175.168 19.293C174.908 19.501 174.778 19.826 174.778 20.268V20.632C174.778 21.074 174.908 21.4033 175.168 21.62C175.428 21.828 175.779 21.932 176.221 21.932ZM182.751 25.156C182.127 25.156 181.603 25.039 181.178 24.805C180.762 24.5623 180.402 24.2417 180.099 23.843L180.84 23.245C181.1 23.5743 181.39 23.83 181.711 24.012C182.032 24.1853 182.404 24.272 182.829 24.272C183.271 24.272 183.613 24.1767 183.856 23.986C184.107 23.7953 184.233 23.5267 184.233 23.18C184.233 22.92 184.146 22.699 183.973 22.517C183.808 22.3263 183.505 22.1963 183.063 22.127L182.53 22.049C182.218 22.0057 181.932 21.9407 181.672 21.854C181.412 21.7587 181.182 21.6373 180.983 21.49C180.792 21.334 180.641 21.1433 180.528 20.918C180.424 20.6927 180.372 20.424 180.372 20.112C180.372 19.7827 180.433 19.4967 180.554 19.254C180.675 19.0027 180.84 18.7947 181.048 18.63C181.265 18.4653 181.52 18.344 181.815 18.266C182.11 18.1793 182.426 18.136 182.764 18.136C183.31 18.136 183.765 18.2313 184.129 18.422C184.502 18.6127 184.827 18.877 185.104 19.215L184.415 19.839C184.268 19.631 184.051 19.4447 183.765 19.28C183.479 19.1067 183.119 19.02 182.686 19.02C182.253 19.02 181.923 19.1153 181.698 19.306C181.481 19.488 181.373 19.7393 181.373 20.06C181.373 20.3893 181.481 20.6277 181.698 20.775C181.923 20.9223 182.244 21.0307 182.66 21.1L183.18 21.178C183.925 21.2907 184.454 21.5073 184.766 21.828C185.078 22.14 185.234 22.5517 185.234 23.063C185.234 23.713 185.013 24.2243 184.571 24.597C184.129 24.9697 183.522 25.156 182.751 25.156Z" fill="white"/>
<path d="M29.4167 24.0833C31.994 24.0833 34.0833 21.994 34.0833 19.4167C34.0833 16.8393 31.994 14.75 29.4167 14.75C26.8393 14.75 24.75 16.8393 24.75 19.4167C24.75 21.994 26.8393 24.0833 29.4167 24.0833Z" stroke="white" stroke-linecap="round" stroke-linejoin="round"/>
<path opacity="0.4" d="M35.2499 25.2499L32.7124 22.7124" stroke="white" stroke-linecap="round" stroke-linejoin="round"/>
</svg>
