<svg width="880" height="31" viewBox="0 0 880 31" fill="none" xmlns="http://www.w3.org/2000/svg">
<rect x="0.5" y="0.5" width="879" height="30" rx="4.5" fill="#F6F7F9" stroke="#D8E1F9"/>
<path opacity="0.4" d="M13.4 19.12C12.92 19.12 12.5167 19.03 12.19 18.85C11.87 18.6633 11.5933 18.4167 11.36 18.11L11.93 17.65C12.13 17.9033 12.3533 18.1 12.6 18.24C12.8467 18.3733 13.1333 18.44 13.46 18.44C13.8 18.44 14.0633 18.3667 14.25 18.22C14.4433 18.0733 14.54 17.8667 14.54 17.6C14.54 17.4 14.4733 17.23 14.34 17.09C14.2133 16.9433 13.98 16.8433 13.64 16.79L13.23 16.73C12.99 16.6967 12.77 16.6467 12.57 16.58C12.37 16.5067 12.1933 16.4133 12.04 16.3C11.8933 16.18 11.7767 16.0333 11.69 15.86C11.61 15.6867 11.57 15.48 11.57 15.24C11.57 14.9867 11.6167 14.7667 11.71 14.58C11.8033 14.3867 11.93 14.2267 12.09 14.1C12.2567 13.9733 12.4533 13.88 12.68 13.82C12.9067 13.7533 13.15 13.72 13.41 13.72C13.83 13.72 14.18 13.7933 14.46 13.94C14.7467 14.0867 14.9967 14.29 15.21 14.55L14.68 15.03C14.5667 14.87 14.4 14.7267 14.18 14.6C13.96 14.4667 13.6833 14.4 13.35 14.4C13.0167 14.4 12.7633 14.4733 12.59 14.62C12.4233 14.76 12.34 14.9533 12.34 15.2C12.34 15.4533 12.4233 15.6367 12.59 15.75C12.7633 15.8633 13.01 15.9467 13.33 16L13.73 16.06C14.3033 16.1467 14.71 16.3133 14.95 16.56C15.19 16.8 15.31 17.1167 15.31 17.51C15.31 18.01 15.14 18.4033 14.8 18.69C14.46 18.9767 13.9933 19.12 13.4 19.12ZM17.7947 19C17.5147 19 17.3014 18.9233 17.1547 18.77C17.0147 18.61 16.9447 18.4033 16.9447 18.15V14.54H16.0947V13.84H16.5747C16.748 13.84 16.8647 13.8067 16.9247 13.74C16.9914 13.6667 17.0247 13.5433 17.0247 13.37V12.41H17.7447V13.84H18.8747V14.54H17.7447V18.3H18.7947V19H17.7947ZM23.9105 19C23.6105 19 23.3939 18.92 23.2605 18.76C23.1339 18.6 23.0539 18.4 23.0205 18.16H22.9705C22.8572 18.48 22.6705 18.72 22.4105 18.88C22.1505 19.04 21.8405 19.12 21.4805 19.12C20.9339 19.12 20.5072 18.98 20.2005 18.7C19.9005 18.42 19.7505 18.04 19.7505 17.56C19.7505 17.0733 19.9272 16.7 20.2805 16.44C20.6405 16.18 21.1972 16.05 21.9505 16.05H22.9705V15.54C22.9705 15.1733 22.8705 14.8933 22.6705 14.7C22.4705 14.5067 22.1639 14.41 21.7505 14.41C21.4372 14.41 21.1739 14.48 20.9605 14.62C20.7539 14.76 20.5805 14.9467 20.4405 15.18L19.9605 14.73C20.1005 14.45 20.3239 14.2133 20.6305 14.02C20.9372 13.82 21.3239 13.72 21.7905 13.72C22.4172 13.72 22.9039 13.8733 23.2505 14.18C23.5972 14.4867 23.7705 14.9133 23.7705 15.46V18.3H24.3605V19H23.9105ZM21.6105 18.44C21.8105 18.44 21.9939 18.4167 22.1605 18.37C22.3272 18.3233 22.4705 18.2567 22.5905 18.17C22.7105 18.0833 22.8039 17.9833 22.8705 17.87C22.9372 17.7567 22.9705 17.6333 22.9705 17.5V16.65H21.9105C21.4505 16.65 21.1139 16.7167 20.9005 16.85C20.6939 16.9833 20.5905 17.1767 20.5905 17.43V17.64C20.5905 17.8933 20.6805 18.09 20.8605 18.23C21.0472 18.37 21.2972 18.44 21.6105 18.44ZM25.5023 19V13.84H26.3023V14.79H26.3523C26.4457 14.5433 26.6123 14.3233 26.8523 14.13C27.0923 13.9367 27.4223 13.84 27.8423 13.84H28.1523V14.64H27.6823C27.249 14.64 26.909 14.7233 26.6623 14.89C26.4223 15.05 26.3023 15.2533 26.3023 15.5V19H25.5023ZM30.3533 19C30.0733 19 29.8599 18.9233 29.7133 18.77C29.5733 18.61 29.5033 18.4033 29.5033 18.15V14.54H28.6533V13.84H29.1333C29.3066 13.84 29.4233 13.8067 29.4833 13.74C29.5499 13.6667 29.5833 13.5433 29.5833 13.37V12.41H30.3033V13.84H31.4333V14.54H30.3033V18.3H31.3533V19H30.3533ZM36.2224 19C35.9424 19 35.7291 18.9233 35.5824 18.77C35.4424 18.61 35.3724 18.4033 35.3724 18.15V14.54H34.5224V13.84H35.0024C35.1758 13.84 35.2924 13.8067 35.3524 13.74C35.4191 13.6667 35.4524 13.5433 35.4524 13.37V12.41H36.1724V13.84H37.3024V14.54H36.1724V18.3H37.2224V19H36.2224ZM41.7683 13.84H42.5583L40.2483 20.2C40.1883 20.3533 40.1283 20.48 40.0683 20.58C40.0083 20.6867 39.9349 20.77 39.8483 20.83C39.7616 20.89 39.6516 20.9333 39.5183 20.96C39.3916 20.9867 39.2349 21 39.0483 21H38.6383V20.3H39.4483L39.8383 19.2L37.9083 13.84H38.7083L39.9483 17.35L40.1883 18.19H40.2383L40.5183 17.35L41.7683 13.84ZM43.5785 13.84H44.3785V14.68H44.4185C44.5518 14.3533 44.7452 14.1133 44.9985 13.96C45.2585 13.8 45.5685 13.72 45.9285 13.72C46.2485 13.72 46.5385 13.7833 46.7985 13.91C47.0585 14.0367 47.2785 14.2167 47.4585 14.45C47.6452 14.6833 47.7852 14.9667 47.8785 15.3C47.9785 15.6333 48.0285 16.0067 48.0285 16.42C48.0285 16.8333 47.9785 17.2067 47.8785 17.54C47.7852 17.8733 47.6452 18.1567 47.4585 18.39C47.2785 18.6233 47.0585 18.8033 46.7985 18.93C46.5385 19.0567 46.2485 19.12 45.9285 19.12C45.2285 19.12 44.7252 18.8 44.4185 18.16H44.3785V21H43.5785V13.84ZM45.7085 18.4C46.1618 18.4 46.5185 18.26 46.7785 17.98C47.0385 17.6933 47.1685 17.32 47.1685 16.86V15.98C47.1685 15.52 47.0385 15.15 46.7785 14.87C46.5185 14.5833 46.1618 14.44 45.7085 14.44C45.5285 14.44 45.3552 14.4667 45.1885 14.52C45.0285 14.5667 44.8885 14.6333 44.7685 14.72C44.6485 14.8067 44.5518 14.9133 44.4785 15.04C44.4118 15.16 44.3785 15.29 44.3785 15.43V17.35C44.3785 17.5167 44.4118 17.6667 44.4785 17.8C44.5518 17.9267 44.6485 18.0367 44.7685 18.13C44.8885 18.2167 45.0285 18.2833 45.1885 18.33C45.3552 18.3767 45.5285 18.4 45.7085 18.4ZM49.7793 12.63C49.606 12.63 49.4793 12.59 49.3993 12.51C49.326 12.4233 49.2893 12.3133 49.2893 12.18V12.05C49.2893 11.9167 49.326 11.81 49.3993 11.73C49.4793 11.6433 49.606 11.6 49.7793 11.6C49.9526 11.6 50.076 11.6433 50.1493 11.73C50.2293 11.81 50.2693 11.9167 50.2693 12.05V12.18C50.2693 12.3133 50.2293 12.4233 50.1493 12.51C50.076 12.59 49.9526 12.63 49.7793 12.63ZM49.3793 13.84H50.1793V19H49.3793V13.84ZM51.8793 19V13.84H52.6793V14.68H52.7193C52.846 14.3867 53.0226 14.1533 53.2493 13.98C53.4826 13.8067 53.7926 13.72 54.1793 13.72C54.7126 13.72 55.1326 13.8933 55.4393 14.24C55.7526 14.58 55.9093 15.0633 55.9093 15.69V19H55.1093V15.83C55.1093 14.9033 54.7193 14.44 53.9393 14.44C53.7793 14.44 53.6226 14.46 53.4693 14.5C53.3226 14.54 53.1893 14.6 53.0693 14.68C52.9493 14.76 52.8526 14.8633 52.7793 14.99C52.7126 15.11 52.6793 15.2533 52.6793 15.42V19H51.8793ZM61.9129 19.57C61.9129 20.1033 61.7029 20.4933 61.2829 20.74C60.8696 20.9933 60.2462 21.12 59.4129 21.12C58.6062 21.12 58.0262 21.01 57.6729 20.79C57.3196 20.57 57.1429 20.2567 57.1429 19.85C57.1429 19.57 57.2162 19.35 57.3629 19.19C57.5096 19.0367 57.7096 18.9233 57.9629 18.85V18.74C57.6562 18.5933 57.5029 18.3533 57.5029 18.02C57.5029 17.76 57.5862 17.5633 57.7529 17.43C57.9196 17.29 58.1329 17.1867 58.3929 17.12V17.08C58.0862 16.9333 57.8462 16.7233 57.6729 16.45C57.5062 16.1767 57.4229 15.86 57.4229 15.5C57.4229 15.24 57.4696 15 57.5629 14.78C57.6562 14.56 57.7862 14.3733 57.9529 14.22C58.1262 14.06 58.3296 13.9367 58.5629 13.85C58.8029 13.7633 59.0696 13.72 59.3629 13.72C59.7296 13.72 60.0562 13.7867 60.3429 13.92V13.83C60.3429 13.63 60.3896 13.4667 60.4829 13.34C60.5762 13.2067 60.7296 13.14 60.9429 13.14H61.7129V13.84H60.7329V14.17C60.9196 14.33 61.0629 14.5233 61.1629 14.75C61.2696 14.97 61.3229 15.22 61.3229 15.5C61.3229 15.76 61.2762 16 61.1829 16.22C61.0896 16.44 60.9562 16.63 60.7829 16.79C60.6162 16.9433 60.4129 17.0633 60.1729 17.15C59.9329 17.2367 59.6662 17.28 59.3729 17.28C59.2062 17.28 59.0396 17.2633 58.8729 17.23C58.6996 17.2767 58.5429 17.3467 58.4029 17.44C58.2629 17.5267 58.1929 17.65 58.1929 17.81C58.1929 17.9633 58.2662 18.0667 58.4129 18.12C58.5596 18.1733 58.7496 18.2 58.9829 18.2H60.0829C60.7229 18.2 61.1862 18.3233 61.4729 18.57C61.7662 18.81 61.9129 19.1433 61.9129 19.57ZM61.1629 19.63C61.1629 19.4233 61.0829 19.2567 60.9229 19.13C60.7696 19.01 60.4929 18.95 60.0929 18.95H58.3729C58.0529 19.0967 57.8929 19.33 57.8929 19.65C57.8929 19.8767 57.9762 20.07 58.1429 20.23C58.3162 20.39 58.6062 20.47 59.0129 20.47H59.7529C60.1996 20.47 60.5462 20.4 60.7929 20.26C61.0396 20.12 61.1629 19.91 61.1629 19.63ZM59.3729 16.64C59.7129 16.64 59.9829 16.56 60.1829 16.4C60.3829 16.2333 60.4829 15.98 60.4829 15.64V15.36C60.4829 15.02 60.3829 14.77 60.1829 14.61C59.9829 14.4433 59.7129 14.36 59.3729 14.36C59.0329 14.36 58.7629 14.4433 58.5629 14.61C58.3629 14.77 58.2629 15.02 58.2629 15.36V15.64C58.2629 15.98 58.3629 16.2333 58.5629 16.4C58.7629 16.56 59.0329 16.64 59.3729 16.64ZM65.4894 14.54H64.6494V13.84H65.4894V12.8C65.4894 12.44 65.5827 12.15 65.7694 11.93C65.956 11.71 66.2394 11.6 66.6194 11.6H67.3994V12.3H66.2894V13.84H69.1794V19H68.3794V14.54H66.2894V19H65.4894V14.54ZM68.7794 12.63C68.606 12.63 68.4794 12.59 68.3994 12.51C68.326 12.4233 68.2894 12.3133 68.2894 12.18V12.05C68.2894 11.9167 68.326 11.81 68.3994 11.73C68.4794 11.6433 68.606 11.6 68.7794 11.6C68.9527 11.6 69.076 11.6433 69.1494 11.73C69.2294 11.81 69.2694 11.9167 69.2694 12.05V12.18C69.2694 12.3133 69.2294 12.4233 69.1494 12.51C69.076 12.59 68.9527 12.63 68.7794 12.63ZM71.7332 19C71.4532 19 71.2399 18.9233 71.0932 18.77C70.9532 18.61 70.8832 18.41 70.8832 18.17V11.6H71.6832V18.3H72.4432V19H71.7332ZM75.5478 19.12C75.1945 19.12 74.8745 19.0567 74.5878 18.93C74.3078 18.8033 74.0645 18.6233 73.8578 18.39C73.6578 18.15 73.5011 17.8667 73.3878 17.54C73.2811 17.2067 73.2278 16.8333 73.2278 16.42C73.2278 16.0133 73.2811 15.6433 73.3878 15.31C73.5011 14.9767 73.6578 14.6933 73.8578 14.46C74.0645 14.22 74.3078 14.0367 74.5878 13.91C74.8745 13.7833 75.1945 13.72 75.5478 13.72C75.8945 13.72 76.2045 13.7833 76.4778 13.91C76.7511 14.0367 76.9845 14.2133 77.1778 14.44C77.3711 14.66 77.5178 14.9233 77.6178 15.23C77.7245 15.5367 77.7778 15.8733 77.7778 16.24V16.62H74.0678V16.86C74.0678 17.08 74.1011 17.2867 74.1678 17.48C74.2411 17.6667 74.3411 17.83 74.4678 17.97C74.6011 18.11 74.7611 18.22 74.9478 18.3C75.1411 18.38 75.3578 18.42 75.5978 18.42C75.9245 18.42 76.2078 18.3433 76.4478 18.19C76.6945 18.0367 76.8845 17.8167 77.0178 17.53L77.5878 17.94C77.4211 18.2933 77.1611 18.58 76.8078 18.8C76.4545 19.0133 76.0345 19.12 75.5478 19.12ZM75.5478 14.39C75.3278 14.39 75.1278 14.43 74.9478 14.51C74.7678 14.5833 74.6111 14.69 74.4778 14.83C74.3511 14.97 74.2511 15.1367 74.1778 15.33C74.1045 15.5167 74.0678 15.7233 74.0678 15.95V16.02H76.9178V15.91C76.9178 15.45 76.7911 15.0833 76.5378 14.81C76.2911 14.53 75.9611 14.39 75.5478 14.39ZM81.4594 19V13.84H82.2594V14.68H82.2994C82.426 14.3867 82.6027 14.1533 82.8294 13.98C83.0627 13.8067 83.3727 13.72 83.7594 13.72C84.2927 13.72 84.7127 13.8933 85.0194 14.24C85.3327 14.58 85.4894 15.0633 85.4894 15.69V19H84.6894V15.83C84.6894 14.9033 84.2994 14.44 83.5194 14.44C83.3594 14.44 83.2027 14.46 83.0494 14.5C82.9027 14.54 82.7694 14.6 82.6494 14.68C82.5294 14.76 82.4327 14.8633 82.3594 14.99C82.2927 15.11 82.2594 15.2533 82.2594 15.42V19H81.4594ZM90.893 19C90.593 19 90.3763 18.92 90.243 18.76C90.1163 18.6 90.0363 18.4 90.003 18.16H89.953C89.8396 18.48 89.653 18.72 89.393 18.88C89.133 19.04 88.823 19.12 88.463 19.12C87.9163 19.12 87.4896 18.98 87.183 18.7C86.883 18.42 86.733 18.04 86.733 17.56C86.733 17.0733 86.9096 16.7 87.263 16.44C87.623 16.18 88.1796 16.05 88.933 16.05H89.953V15.54C89.953 15.1733 89.853 14.8933 89.653 14.7C89.453 14.5067 89.1463 14.41 88.733 14.41C88.4196 14.41 88.1563 14.48 87.943 14.62C87.7363 14.76 87.563 14.9467 87.423 15.18L86.943 14.73C87.083 14.45 87.3063 14.2133 87.613 14.02C87.9196 13.82 88.3063 13.72 88.773 13.72C89.3996 13.72 89.8863 13.8733 90.233 14.18C90.5796 14.4867 90.753 14.9133 90.753 15.46V18.3H91.343V19H90.893ZM88.593 18.44C88.793 18.44 88.9763 18.4167 89.143 18.37C89.3096 18.3233 89.453 18.2567 89.573 18.17C89.693 18.0833 89.7863 17.9833 89.853 17.87C89.9196 17.7567 89.953 17.6333 89.953 17.5V16.65H88.893C88.433 16.65 88.0963 16.7167 87.883 16.85C87.6763 16.9833 87.573 17.1767 87.573 17.43V17.64C87.573 17.8933 87.663 18.09 87.843 18.23C88.0296 18.37 88.2796 18.44 88.593 18.44ZM92.4848 19V13.84H93.2848V14.68H93.3248C93.3848 14.5467 93.4514 14.4233 93.5248 14.31C93.6048 14.19 93.6981 14.0867 93.8048 14C93.9181 13.9133 94.0481 13.8467 94.1948 13.8C94.3414 13.7467 94.5148 13.72 94.7148 13.72C95.0548 13.72 95.3681 13.8033 95.6548 13.97C95.9414 14.13 96.1548 14.3967 96.2948 14.77H96.3148C96.4081 14.49 96.5814 14.2467 96.8348 14.04C97.0948 13.8267 97.4448 13.72 97.8848 13.72C98.4114 13.72 98.8214 13.8933 99.1148 14.24C99.4148 14.58 99.5648 15.0633 99.5648 15.69V19H98.7648V15.83C98.7648 15.37 98.6748 15.0233 98.4948 14.79C98.3148 14.5567 98.0281 14.44 97.6348 14.44C97.4748 14.44 97.3214 14.46 97.1748 14.5C97.0348 14.54 96.9081 14.6 96.7948 14.68C96.6814 14.76 96.5914 14.8633 96.5248 14.99C96.4581 15.11 96.4248 15.2533 96.4248 15.42V19H95.6248V15.83C95.6248 15.37 95.5348 15.0233 95.3548 14.79C95.1748 14.5567 94.8948 14.44 94.5148 14.44C94.3548 14.44 94.2014 14.46 94.0548 14.5C93.9081 14.54 93.7781 14.6 93.6648 14.68C93.5514 14.76 93.4581 14.8633 93.3848 14.99C93.3181 15.11 93.2848 15.2533 93.2848 15.42V19H92.4848ZM103.155 19.12C102.802 19.12 102.482 19.0567 102.195 18.93C101.915 18.8033 101.672 18.6233 101.465 18.39C101.265 18.15 101.109 17.8667 100.995 17.54C100.889 17.2067 100.835 16.8333 100.835 16.42C100.835 16.0133 100.889 15.6433 100.995 15.31C101.109 14.9767 101.265 14.6933 101.465 14.46C101.672 14.22 101.915 14.0367 102.195 13.91C102.482 13.7833 102.802 13.72 103.155 13.72C103.502 13.72 103.812 13.7833 104.085 13.91C104.359 14.0367 104.592 14.2133 104.785 14.44C104.979 14.66 105.125 14.9233 105.225 15.23C105.332 15.5367 105.385 15.8733 105.385 16.24V16.62H101.675V16.86C101.675 17.08 101.709 17.2867 101.775 17.48C101.849 17.6667 101.949 17.83 102.075 17.97C102.209 18.11 102.369 18.22 102.555 18.3C102.749 18.38 102.965 18.42 103.205 18.42C103.532 18.42 103.815 18.3433 104.055 18.19C104.302 18.0367 104.492 17.8167 104.625 17.53L105.195 17.94C105.029 18.2933 104.769 18.58 104.415 18.8C104.062 19.0133 103.642 19.12 103.155 19.12ZM103.155 14.39C102.935 14.39 102.735 14.43 102.555 14.51C102.375 14.5833 102.219 14.69 102.085 14.83C101.959 14.97 101.859 15.1367 101.785 15.33C101.712 15.5167 101.675 15.7233 101.675 15.95V16.02H104.525V15.91C104.525 15.45 104.399 15.0833 104.145 14.81C103.899 14.53 103.569 14.39 103.155 14.39ZM110.207 19C109.927 19 109.713 18.9233 109.567 18.77C109.427 18.61 109.357 18.4033 109.357 18.15V14.54H108.507V13.84H108.987C109.16 13.84 109.277 13.8067 109.337 13.74C109.403 13.6667 109.437 13.5433 109.437 13.37V12.41H110.157V13.84H111.287V14.54H110.157V18.3H111.207V19H110.207ZM114.484 19.12C114.137 19.12 113.82 19.0567 113.534 18.93C113.247 18.8033 113 18.6233 112.794 18.39C112.594 18.15 112.437 17.8667 112.324 17.54C112.21 17.2067 112.154 16.8333 112.154 16.42C112.154 16.0133 112.21 15.6433 112.324 15.31C112.437 14.9767 112.594 14.6933 112.794 14.46C113 14.22 113.247 14.0367 113.534 13.91C113.82 13.7833 114.137 13.72 114.484 13.72C114.83 13.72 115.144 13.7833 115.424 13.91C115.71 14.0367 115.957 14.22 116.164 14.46C116.37 14.6933 116.53 14.9767 116.644 15.31C116.757 15.6433 116.814 16.0133 116.814 16.42C116.814 16.8333 116.757 17.2067 116.644 17.54C116.53 17.8667 116.37 18.15 116.164 18.39C115.957 18.6233 115.71 18.8033 115.424 18.93C115.144 19.0567 114.83 19.12 114.484 19.12ZM114.484 18.41C114.917 18.41 115.27 18.2767 115.544 18.01C115.817 17.7433 115.954 17.3367 115.954 16.79V16.05C115.954 15.5033 115.817 15.0967 115.544 14.83C115.27 14.5633 114.917 14.43 114.484 14.43C114.05 14.43 113.697 14.5633 113.424 14.83C113.15 15.0967 113.014 15.5033 113.014 16.05V16.79C113.014 17.3367 113.15 17.7433 113.424 18.01C113.697 18.2767 114.05 18.41 114.484 18.41ZM123.793 18.16H123.753C123.439 18.8 122.936 19.12 122.243 19.12C121.923 19.12 121.633 19.0567 121.373 18.93C121.113 18.8033 120.889 18.6233 120.703 18.39C120.523 18.1567 120.383 17.8733 120.283 17.54C120.189 17.2067 120.143 16.8333 120.143 16.42C120.143 16.0067 120.189 15.6333 120.283 15.3C120.383 14.9667 120.523 14.6833 120.703 14.45C120.889 14.2167 121.113 14.0367 121.373 13.91C121.633 13.7833 121.923 13.72 122.243 13.72C122.603 13.72 122.909 13.8 123.163 13.96C123.423 14.1133 123.619 14.3533 123.753 14.68H123.793V13.84H124.593V21H123.793V18.16ZM122.463 18.4C122.643 18.4 122.813 18.3767 122.973 18.33C123.139 18.2833 123.283 18.2167 123.403 18.13C123.523 18.0367 123.616 17.9267 123.683 17.8C123.756 17.6667 123.793 17.5167 123.793 17.35V15.43C123.793 15.29 123.756 15.16 123.683 15.04C123.616 14.9133 123.523 14.8067 123.403 14.72C123.283 14.6333 123.139 14.5667 122.973 14.52C122.813 14.4667 122.643 14.44 122.463 14.44C122.009 14.44 121.653 14.5833 121.393 14.87C121.133 15.15 121.003 15.52 121.003 15.98V16.86C121.003 17.32 121.133 17.6933 121.393 17.98C121.653 18.26 122.009 18.4 122.463 18.4ZM129.473 18.16H129.433C129.38 18.28 129.313 18.4 129.233 18.52C129.16 18.6333 129.067 18.7367 128.953 18.83C128.84 18.9167 128.703 18.9867 128.543 19.04C128.383 19.0933 128.197 19.12 127.983 19.12C127.45 19.12 127.027 18.95 126.713 18.61C126.4 18.2633 126.243 17.7767 126.243 17.15V13.84H127.043V17.01C127.043 17.9367 127.437 18.4 128.223 18.4C128.383 18.4 128.537 18.38 128.683 18.34C128.837 18.3 128.97 18.24 129.083 18.16C129.203 18.08 129.297 17.98 129.363 17.86C129.437 17.7333 129.473 17.5833 129.473 17.41V13.84H130.273V19H129.473V18.16ZM132.377 12.63C132.204 12.63 132.077 12.59 131.997 12.51C131.924 12.4233 131.887 12.3133 131.887 12.18V12.05C131.887 11.9167 131.924 11.81 131.997 11.73C132.077 11.6433 132.204 11.6 132.377 11.6C132.55 11.6 132.674 11.6433 132.747 11.73C132.827 11.81 132.867 11.9167 132.867 12.05V12.18C132.867 12.3133 132.827 12.4233 132.747 12.51C132.674 12.59 132.55 12.63 132.377 12.63ZM131.977 13.84H132.777V19H131.977V13.84ZM136.397 19.12C136.037 19.12 135.714 19.0567 135.427 18.93C135.14 18.8033 134.897 18.6233 134.697 18.39C134.504 18.1567 134.354 17.8733 134.247 17.54C134.147 17.2067 134.097 16.8333 134.097 16.42C134.097 16.0067 134.147 15.6333 134.247 15.3C134.354 14.9667 134.504 14.6833 134.697 14.45C134.897 14.2167 135.14 14.0367 135.427 13.91C135.714 13.7833 136.037 13.72 136.397 13.72C136.91 13.72 137.32 13.8333 137.627 14.06C137.94 14.28 138.174 14.57 138.327 14.93L137.657 15.27C137.564 15.0033 137.41 14.7967 137.197 14.65C136.984 14.5033 136.717 14.43 136.397 14.43C136.157 14.43 135.947 14.47 135.767 14.55C135.587 14.6233 135.437 14.73 135.317 14.87C135.197 15.0033 135.107 15.1667 135.047 15.36C134.987 15.5467 134.957 15.7533 134.957 15.98V16.86C134.957 17.3133 135.077 17.6867 135.317 17.98C135.564 18.2667 135.924 18.41 136.397 18.41C137.044 18.41 137.51 18.11 137.797 17.51L138.377 17.9C138.21 18.2733 137.96 18.57 137.627 18.79C137.3 19.01 136.89 19.12 136.397 19.12ZM139.506 11.6H140.306V16.29H140.346L141.136 15.41L142.596 13.84H143.566L141.656 15.88L143.756 19H142.786L141.076 16.37L140.306 17.16V19H139.506V11.6ZM145.63 19C145.35 19 145.136 18.9233 144.99 18.77C144.85 18.61 144.78 18.41 144.78 18.17V11.6H145.58V18.3H146.34V19H145.63ZM150.587 13.84H151.377L149.067 20.2C149.007 20.3533 148.947 20.48 148.887 20.58C148.827 20.6867 148.753 20.77 148.667 20.83C148.58 20.89 148.47 20.9333 148.337 20.96C148.21 20.9867 148.053 21 147.867 21H147.457V20.3H148.267L148.657 19.2L146.727 13.84H147.527L148.767 17.35L149.007 18.19H149.057L149.337 17.35L150.587 13.84ZM156.31 19.12C155.83 19.12 155.427 19.03 155.1 18.85C154.78 18.6633 154.503 18.4167 154.27 18.11L154.84 17.65C155.04 17.9033 155.263 18.1 155.51 18.24C155.757 18.3733 156.043 18.44 156.37 18.44C156.71 18.44 156.973 18.3667 157.16 18.22C157.353 18.0733 157.45 17.8667 157.45 17.6C157.45 17.4 157.383 17.23 157.25 17.09C157.123 16.9433 156.89 16.8433 156.55 16.79L156.14 16.73C155.9 16.6967 155.68 16.6467 155.48 16.58C155.28 16.5067 155.103 16.4133 154.95 16.3C154.803 16.18 154.687 16.0333 154.6 15.86C154.52 15.6867 154.48 15.48 154.48 15.24C154.48 14.9867 154.527 14.7667 154.62 14.58C154.713 14.3867 154.84 14.2267 155 14.1C155.167 13.9733 155.363 13.88 155.59 13.82C155.817 13.7533 156.06 13.72 156.32 13.72C156.74 13.72 157.09 13.7933 157.37 13.94C157.657 14.0867 157.907 14.29 158.12 14.55L157.59 15.03C157.477 14.87 157.31 14.7267 157.09 14.6C156.87 14.4667 156.593 14.4 156.26 14.4C155.927 14.4 155.673 14.4733 155.5 14.62C155.333 14.76 155.25 14.9533 155.25 15.2C155.25 15.4533 155.333 15.6367 155.5 15.75C155.673 15.8633 155.92 15.9467 156.24 16L156.64 16.06C157.213 16.1467 157.62 16.3133 157.86 16.56C158.1 16.8 158.22 17.1167 158.22 17.51C158.22 18.01 158.05 18.4033 157.71 18.69C157.37 18.9767 156.903 19.12 156.31 19.12ZM161.583 19.12C161.237 19.12 160.92 19.0567 160.633 18.93C160.347 18.8033 160.1 18.6233 159.893 18.39C159.693 18.15 159.537 17.8667 159.423 17.54C159.31 17.2067 159.253 16.8333 159.253 16.42C159.253 16.0133 159.31 15.6433 159.423 15.31C159.537 14.9767 159.693 14.6933 159.893 14.46C160.1 14.22 160.347 14.0367 160.633 13.91C160.92 13.7833 161.237 13.72 161.583 13.72C161.93 13.72 162.243 13.7833 162.523 13.91C162.81 14.0367 163.057 14.22 163.263 14.46C163.47 14.6933 163.63 14.9767 163.743 15.31C163.857 15.6433 163.913 16.0133 163.913 16.42C163.913 16.8333 163.857 17.2067 163.743 17.54C163.63 17.8667 163.47 18.15 163.263 18.39C163.057 18.6233 162.81 18.8033 162.523 18.93C162.243 19.0567 161.93 19.12 161.583 19.12ZM161.583 18.41C162.017 18.41 162.37 18.2767 162.643 18.01C162.917 17.7433 163.053 17.3367 163.053 16.79V16.05C163.053 15.5033 162.917 15.0967 162.643 14.83C162.37 14.5633 162.017 14.43 161.583 14.43C161.15 14.43 160.797 14.5633 160.523 14.83C160.25 15.0967 160.113 15.5033 160.113 16.05V16.79C160.113 17.3367 160.25 17.7433 160.523 18.01C160.797 18.2767 161.15 18.41 161.583 18.41ZM165.229 19V13.84H166.029V14.79H166.079C166.172 14.5433 166.339 14.3233 166.579 14.13C166.819 13.9367 167.149 13.84 167.569 13.84H167.879V14.64H167.409C166.976 14.64 166.636 14.7233 166.389 14.89C166.149 15.05 166.029 15.2533 166.029 15.5V19H165.229ZM170.08 19C169.8 19 169.587 18.9233 169.44 18.77C169.3 18.61 169.23 18.4033 169.23 18.15V14.54H168.38V13.84H168.86C169.033 13.84 169.15 13.8067 169.21 13.74C169.277 13.6667 169.31 13.5433 169.31 13.37V12.41H170.03V13.84H171.16V14.54H170.03V18.3H171.08V19H170.08ZM175.949 19C175.669 19 175.456 18.9233 175.309 18.77C175.169 18.61 175.099 18.4033 175.099 18.15V14.54H174.249V13.84H174.729C174.902 13.84 175.019 13.8067 175.079 13.74C175.146 13.6667 175.179 13.5433 175.179 13.37V12.41H175.899V13.84H177.029V14.54H175.899V18.3H176.949V19H175.949ZM178.315 11.6H179.115V14.68H179.155C179.282 14.3867 179.458 14.1533 179.685 13.98C179.918 13.8067 180.228 13.72 180.615 13.72C181.148 13.72 181.568 13.8933 181.875 14.24C182.188 14.58 182.345 15.0633 182.345 15.69V19H181.545V15.83C181.545 14.9033 181.155 14.44 180.375 14.44C180.215 14.44 180.058 14.46 179.905 14.5C179.758 14.54 179.625 14.6 179.505 14.68C179.385 14.76 179.288 14.8633 179.215 14.99C179.148 15.11 179.115 15.2533 179.115 15.42V19H178.315V11.6ZM185.938 19.12C185.585 19.12 185.265 19.0567 184.978 18.93C184.698 18.8033 184.455 18.6233 184.248 18.39C184.048 18.15 183.892 17.8667 183.778 17.54C183.672 17.2067 183.618 16.8333 183.618 16.42C183.618 16.0133 183.672 15.6433 183.778 15.31C183.892 14.9767 184.048 14.6933 184.248 14.46C184.455 14.22 184.698 14.0367 184.978 13.91C185.265 13.7833 185.585 13.72 185.938 13.72C186.285 13.72 186.595 13.7833 186.868 13.91C187.142 14.0367 187.375 14.2133 187.568 14.44C187.762 14.66 187.908 14.9233 188.008 15.23C188.115 15.5367 188.168 15.8733 188.168 16.24V16.62H184.458V16.86C184.458 17.08 184.492 17.2867 184.558 17.48C184.632 17.6667 184.732 17.83 184.858 17.97C184.992 18.11 185.152 18.22 185.338 18.3C185.532 18.38 185.748 18.42 185.988 18.42C186.315 18.42 186.598 18.3433 186.838 18.19C187.085 18.0367 187.275 17.8167 187.408 17.53L187.978 17.94C187.812 18.2933 187.552 18.58 187.198 18.8C186.845 19.0133 186.425 19.12 185.938 19.12ZM185.938 14.39C185.718 14.39 185.518 14.43 185.338 14.51C185.158 14.5833 185.002 14.69 184.868 14.83C184.742 14.97 184.642 15.1367 184.568 15.33C184.495 15.5167 184.458 15.7233 184.458 15.95V16.02H187.308V15.91C187.308 15.45 187.182 15.0833 186.928 14.81C186.682 14.53 186.352 14.39 185.938 14.39ZM189.487 19V13.84H190.287V14.68H190.327C190.387 14.5467 190.453 14.4233 190.527 14.31C190.607 14.19 190.7 14.0867 190.807 14C190.92 13.9133 191.05 13.8467 191.197 13.8C191.343 13.7467 191.517 13.72 191.717 13.72C192.057 13.72 192.37 13.8033 192.657 13.97C192.943 14.13 193.157 14.3967 193.297 14.77H193.317C193.41 14.49 193.583 14.2467 193.837 14.04C194.097 13.8267 194.447 13.72 194.887 13.72C195.413 13.72 195.823 13.8933 196.117 14.24C196.417 14.58 196.567 15.0633 196.567 15.69V19H195.767V15.83C195.767 15.37 195.677 15.0233 195.497 14.79C195.317 14.5567 195.03 14.44 194.637 14.44C194.477 14.44 194.323 14.46 194.177 14.5C194.037 14.54 193.91 14.6 193.797 14.68C193.683 14.76 193.593 14.8633 193.527 14.99C193.46 15.11 193.427 15.2533 193.427 15.42V19H192.627V15.83C192.627 15.37 192.537 15.0233 192.357 14.79C192.177 14.5567 191.897 14.44 191.517 14.44C191.357 14.44 191.203 14.46 191.057 14.5C190.91 14.54 190.78 14.6 190.667 14.68C190.553 14.76 190.46 14.8633 190.387 14.99C190.32 15.11 190.287 15.2533 190.287 15.42V19H189.487ZM202.53 19.12C202.184 19.12 201.867 19.0567 201.58 18.93C201.294 18.8033 201.047 18.6233 200.84 18.39C200.64 18.15 200.484 17.8667 200.37 17.54C200.257 17.2067 200.2 16.8333 200.2 16.42C200.2 16.0133 200.257 15.6433 200.37 15.31C200.484 14.9767 200.64 14.6933 200.84 14.46C201.047 14.22 201.294 14.0367 201.58 13.91C201.867 13.7833 202.184 13.72 202.53 13.72C202.877 13.72 203.19 13.7833 203.47 13.91C203.757 14.0367 204.004 14.22 204.21 14.46C204.417 14.6933 204.577 14.9767 204.69 15.31C204.804 15.6433 204.86 16.0133 204.86 16.42C204.86 16.8333 204.804 17.2067 204.69 17.54C204.577 17.8667 204.417 18.15 204.21 18.39C204.004 18.6233 203.757 18.8033 203.47 18.93C203.19 19.0567 202.877 19.12 202.53 19.12ZM202.53 18.41C202.964 18.41 203.317 18.2767 203.59 18.01C203.864 17.7433 204 17.3367 204 16.79V16.05C204 15.5033 203.864 15.0967 203.59 14.83C203.317 14.5633 202.964 14.43 202.53 14.43C202.097 14.43 201.744 14.5633 201.47 14.83C201.197 15.0967 201.06 15.5033 201.06 16.05V16.79C201.06 17.3367 201.197 17.7433 201.47 18.01C201.744 18.2767 202.097 18.41 202.53 18.41ZM209.356 18.16H209.316C209.263 18.28 209.196 18.4 209.116 18.52C209.043 18.6333 208.95 18.7367 208.836 18.83C208.723 18.9167 208.586 18.9867 208.426 19.04C208.266 19.0933 208.08 19.12 207.866 19.12C207.333 19.12 206.91 18.95 206.596 18.61C206.283 18.2633 206.126 17.7767 206.126 17.15V13.84H206.926V17.01C206.926 17.9367 207.32 18.4 208.106 18.4C208.266 18.4 208.42 18.38 208.566 18.34C208.72 18.3 208.853 18.24 208.966 18.16C209.086 18.08 209.18 17.98 209.246 17.86C209.32 17.7333 209.356 17.5833 209.356 17.41V13.84H210.156V19H209.356V18.16ZM213 19C212.72 19 212.506 18.9233 212.36 18.77C212.22 18.61 212.15 18.4033 212.15 18.15V14.54H211.3V13.84H211.78C211.953 13.84 212.07 13.8067 212.13 13.74C212.196 13.6667 212.23 13.5433 212.23 13.37V12.41H212.95V13.84H214.08V14.54H212.95V18.3H214V19H213Z" fill="#021631"/>
</svg>
