<svg width="21" height="25" viewBox="0 0 21 25" version="1.1" xmlns="http://www.w3.org/2000/svg" role="presentation" aria-hidden="true" tabindex="-1" clickable="false"><g id="Page-1" stroke="none" stroke-width="1" fill="#232f3e"  role="presentation" aria-hidden="true" tabindex="-1"><g id="Options" transform="translate(-334.000000, -766.000000)" fill="#232f3e" role="presentation" aria-hidden="true" tabindex="-1"><g id="Input-Bar" transform="translate(0.000000, 748.000000)" role="presentation" aria-hidden="true" tabindex="-1"><path d="M334,27.3976063 L334,19 C334,18.4477153 334.447715,18 335,18 C335.176381,18 335.349625,18.0466518 335.502155,18.1352226 L354.542781,29.1916553 C355.020385,29.468988 355.182736,30.0809847 354.905403,30.5585881 C354.817941,30.7092095 354.692655,30.8343751 354.54195,30.9216925 L335.501324,41.9536602 C335.023454,42.2305337 334.411614,42.067594 334.13474,41.5897242 C334.04648,41.4373907 334,41.2644557 334,41.0884005 L334,32.6905876 C334,32.1671877 334.403595,31.7323345 334.925542,31.6933634 L345.418213,30.9099298 C345.892883,30.8744886 346.248948,30.4609618 346.213507,29.9862917 C346.181776,29.5613054 345.844198,29.2233197 345.41925,29.1910754 L334.924339,28.3947399 C334.402902,28.3551742 334,27.9205421 334,27.3976063 Z" id="Send-Icon" transform="translate(344.520395, 30.044283) scale(1, -1) translate(-344.520395, -30.044283) " role="presentation" aria-hidden="true" tabindex="-1"></path></g></g></g></svg>