<svg width="45" height="45" viewBox="0 0 45 45" fill="none" xmlns="http://www.w3.org/2000/svg">
<circle opacity="0.1" cx="22.5" cy="22.5" r="22.5" fill="#0A1A7B"/>
<path fill-rule="evenodd" clip-rule="evenodd" d="M18.3139 15.9593C18.3139 14.6588 19.3681 13.6046 20.6685 13.6046H24.5929C24.8011 13.6046 25.0007 13.6873 25.1479 13.8345L30.6421 19.3287C30.7893 19.4759 30.872 19.6755 30.872 19.8837V26.9476C30.872 28.2481 29.8178 29.3023 28.5173 29.3023H27.7325V30.0872C27.7325 31.3876 26.6783 32.4418 25.3778 32.4418H17.529C16.2285 32.4418 15.1743 31.3876 15.1743 30.0872V19.0988C15.1743 17.7984 16.2285 16.7441 17.529 16.7441H18.3139V15.9593ZM18.3139 18.3139H17.529C17.0955 18.3139 16.7441 18.6653 16.7441 19.0988V30.0872C16.7441 30.5207 17.0955 30.8721 17.529 30.8721H25.3778C25.8113 30.8721 26.1627 30.5207 26.1627 30.0872V29.3023H20.6685C19.3681 29.3023 18.3139 28.2481 18.3139 26.9476V18.3139ZM20.6685 15.1744C20.235 15.1744 19.8836 15.5258 19.8836 15.9593V26.9476C19.8836 27.3811 20.235 27.7325 20.6685 27.7325H28.5173C28.9508 27.7325 29.3022 27.3811 29.3022 26.9476V20.6686H26.1627C24.8622 20.6686 23.808 19.6144 23.808 18.3139V15.1744H20.6685ZM25.3778 16.2844L28.1922 19.0988H26.1627C25.7292 19.0988 25.3778 18.7474 25.3778 18.3139V16.2844Z" fill="#0A1A7B"/>
</svg>
