<svg width="45" height="45" viewBox="0 0 45 45" fill="none" xmlns="http://www.w3.org/2000/svg">
<circle opacity="0.1" cx="22.5" cy="22.5" r="22.5" fill="#D231AA"/>
<path fill-rule="evenodd" clip-rule="evenodd" d="M21.9769 15.9593C20.243 15.9593 18.8373 17.3649 18.8373 19.0988C18.8373 20.8327 20.243 22.2384 21.9769 22.2384C23.7108 22.2384 25.1164 20.8327 25.1164 19.0988C25.1164 17.3649 23.7108 15.9593 21.9769 15.9593ZM24.9392 22.7599C26.0049 21.8965 26.6862 20.5772 26.6862 19.0988C26.6862 16.498 24.5777 14.3895 21.9769 14.3895C19.376 14.3895 17.2676 16.498 17.2676 19.0988C17.2676 20.5772 17.9488 21.8965 19.0145 22.7599C15.9635 23.8743 13.7178 26.6609 13.3856 30.0108C13.2919 30.956 14.0692 31.657 14.9129 31.657H29.0408C29.8846 31.657 30.6618 30.956 30.5681 30.0108C30.236 26.6609 27.9902 23.8743 24.9392 22.7599ZM21.9769 23.8081C18.341 23.8081 15.3459 26.5556 14.956 30.0872H28.9978C28.6078 26.5556 25.6128 23.8081 21.9769 23.8081Z" fill="#D231AA"/>
</svg>
