<svg width="67" height="28" viewBox="0 0 67 28" fill="none" xmlns="http://www.w3.org/2000/svg">
<rect width="67" height="28" rx="14" fill="#D231AA" fill-opacity="0.1"/>
<path d="M17.14 18L16.58 16.22H14.1L13.55 18H12.21L14.55 11.02H16.19L18.51 18H17.14ZM15.36 12.22H15.31L14.42 15.09H16.26L15.36 12.22ZM20.7388 18C20.2988 18 19.9754 17.89 19.7688 17.67C19.5621 17.45 19.4588 17.14 19.4588 16.74V10.6H20.7388V16.98H21.4288V18H20.7388ZM23.6098 18C23.1698 18 22.8465 17.89 22.6398 17.67C22.4332 17.45 22.3298 17.14 22.3298 16.74V10.6H23.6098V16.98H24.2998V18H23.6098ZM25.9093 12.02C25.6426 12.02 25.4493 11.96 25.3293 11.84C25.216 11.72 25.1593 11.5667 25.1593 11.38V11.18C25.1593 10.9933 25.216 10.84 25.3293 10.72C25.4493 10.6 25.6426 10.54 25.9093 10.54C26.1693 10.54 26.3593 10.6 26.4793 10.72C26.5993 10.84 26.6593 10.9933 26.6593 11.18V11.38C26.6593 11.5667 26.5993 11.72 26.4793 11.84C26.3593 11.96 26.1693 12.02 25.9093 12.02ZM25.2693 12.78H26.5493V18H25.2693V12.78ZM31.873 18C31.593 18 31.3696 17.92 31.203 17.76C31.043 17.5933 30.943 17.3733 30.903 17.1H30.843C30.7563 17.44 30.5796 17.6967 30.313 17.87C30.0463 18.0367 29.7163 18.12 29.323 18.12C28.7896 18.12 28.3796 17.98 28.093 17.7C27.8063 17.42 27.663 17.0467 27.663 16.58C27.663 16.04 27.8563 15.64 28.243 15.38C28.6296 15.1133 29.1796 14.98 29.893 14.98H30.783V14.6C30.783 14.3067 30.7063 14.08 30.553 13.92C30.3996 13.76 30.153 13.68 29.813 13.68C29.513 13.68 29.2696 13.7467 29.083 13.88C28.903 14.0067 28.7496 14.16 28.623 14.34L27.863 13.66C28.0563 13.36 28.313 13.12 28.633 12.94C28.953 12.7533 29.3763 12.66 29.903 12.66C30.6096 12.66 31.1463 12.82 31.513 13.14C31.8796 13.46 32.063 13.92 32.063 14.52V16.98H32.583V18H31.873ZM29.753 17.19C30.0396 17.19 30.283 17.1267 30.483 17C30.683 16.8733 30.783 16.6867 30.783 16.44V15.75H29.963C29.2963 15.75 28.963 15.9633 28.963 16.39V16.56C28.963 16.7733 29.0296 16.9333 29.163 17.04C29.303 17.14 29.4996 17.19 29.753 17.19ZM33.6189 18V12.78H34.8989V13.65H34.9489C35.0556 13.37 35.2222 13.1367 35.4489 12.95C35.6822 12.7567 36.0022 12.66 36.4089 12.66C36.9489 12.66 37.3622 12.8367 37.6489 13.19C37.9356 13.5433 38.0789 14.0467 38.0789 14.7V18H36.7989V14.83C36.7989 14.4567 36.7322 14.1767 36.5989 13.99C36.4656 13.8033 36.2456 13.71 35.9389 13.71C35.8056 13.71 35.6756 13.73 35.5489 13.77C35.4289 13.8033 35.3189 13.8567 35.2189 13.93C35.1256 13.9967 35.0489 14.0833 34.9889 14.19C34.9289 14.29 34.8989 14.41 34.8989 14.55V18H33.6189ZM41.5578 18.12C41.1711 18.12 40.8278 18.0567 40.5278 17.93C40.2278 17.8033 39.9745 17.62 39.7678 17.38C39.5678 17.14 39.4145 16.8533 39.3078 16.52C39.2011 16.18 39.1478 15.8 39.1478 15.38C39.1478 14.96 39.2011 14.5833 39.3078 14.25C39.4145 13.9167 39.5678 13.6333 39.7678 13.4C39.9745 13.16 40.2278 12.9767 40.5278 12.85C40.8278 12.7233 41.1711 12.66 41.5578 12.66C42.0845 12.66 42.5178 12.7767 42.8578 13.01C43.2045 13.2433 43.4545 13.5667 43.6078 13.98L42.5578 14.45C42.4978 14.23 42.3845 14.05 42.2178 13.91C42.0578 13.7633 41.8378 13.69 41.5578 13.69C41.1978 13.69 40.9278 13.8033 40.7478 14.03C40.5745 14.2567 40.4878 14.5533 40.4878 14.92V15.87C40.4878 16.2367 40.5745 16.5333 40.7478 16.76C40.9278 16.98 41.1978 17.09 41.5578 17.09C41.8645 17.09 42.1011 17.0133 42.2678 16.86C42.4345 16.7 42.5645 16.5033 42.6578 16.27L43.6378 16.74C43.4645 17.2 43.2011 17.5467 42.8478 17.78C42.4945 18.0067 42.0645 18.12 41.5578 18.12ZM46.6859 18.12C46.2993 18.12 45.9526 18.0567 45.6459 17.93C45.3459 17.7967 45.0893 17.6133 44.8759 17.38C44.6693 17.14 44.5093 16.8533 44.3959 16.52C44.2826 16.18 44.2259 15.8 44.2259 15.38C44.2259 14.9667 44.2793 14.5933 44.3859 14.26C44.4993 13.9267 44.6593 13.6433 44.8659 13.41C45.0726 13.17 45.3259 12.9867 45.6259 12.86C45.9259 12.7267 46.2659 12.66 46.6459 12.66C47.0526 12.66 47.4059 12.73 47.7059 12.87C48.0059 13.01 48.2526 13.2 48.4459 13.44C48.6393 13.68 48.7826 13.96 48.8759 14.28C48.9759 14.5933 49.0259 14.93 49.0259 15.29V15.71H45.5559V15.84C45.5559 16.22 45.6626 16.5267 45.8759 16.76C46.0893 16.9867 46.4059 17.1 46.8259 17.1C47.1459 17.1 47.4059 17.0333 47.6059 16.9C47.8126 16.7667 47.9959 16.5967 48.1559 16.39L48.8459 17.16C48.6326 17.46 48.3393 17.6967 47.9659 17.87C47.5993 18.0367 47.1726 18.12 46.6859 18.12ZM46.6659 13.62C46.3259 13.62 46.0559 13.7333 45.8559 13.96C45.6559 14.1867 45.5559 14.48 45.5559 14.84V14.92H47.6959V14.83C47.6959 14.47 47.6059 14.18 47.4259 13.96C47.2526 13.7333 46.9993 13.62 46.6659 13.62ZM51.8621 18.12C51.3621 18.12 50.9421 18.0367 50.6021 17.87C50.2621 17.6967 49.9621 17.46 49.7021 17.16L50.4821 16.4C50.6754 16.62 50.8854 16.7933 51.1121 16.92C51.3454 17.0467 51.6121 17.11 51.9121 17.11C52.2188 17.11 52.4388 17.0567 52.5721 16.95C52.7121 16.8433 52.7821 16.6967 52.7821 16.51C52.7821 16.3567 52.7321 16.2367 52.6321 16.15C52.5388 16.0567 52.3754 15.9933 52.1421 15.96L51.6221 15.89C51.0554 15.8167 50.6221 15.6567 50.3221 15.41C50.0288 15.1567 49.8821 14.79 49.8821 14.31C49.8821 14.0567 49.9288 13.83 50.0221 13.63C50.1154 13.4233 50.2488 13.25 50.4221 13.11C50.5954 12.9633 50.8021 12.8533 51.0421 12.78C51.2888 12.7 51.5621 12.66 51.8621 12.66C52.1154 12.66 52.3388 12.68 52.5321 12.72C52.7321 12.7533 52.9121 12.8067 53.0721 12.88C53.2321 12.9467 53.3788 13.0333 53.5121 13.14C53.6454 13.24 53.7754 13.3533 53.9021 13.48L53.1521 14.23C52.9988 14.07 52.8154 13.9367 52.6021 13.83C52.3888 13.7233 52.1554 13.67 51.9021 13.67C51.6221 13.67 51.4188 13.72 51.2921 13.82C51.1721 13.92 51.1121 14.05 51.1121 14.21C51.1121 14.3833 51.1621 14.5167 51.2621 14.61C51.3688 14.6967 51.5454 14.76 51.7921 14.8L52.3221 14.87C53.4488 15.03 54.0121 15.5433 54.0121 16.41C54.0121 16.6633 53.9588 16.8967 53.8521 17.11C53.7521 17.3167 53.6088 17.4967 53.4221 17.65C53.2354 17.7967 53.0088 17.9133 52.7421 18C52.4821 18.08 52.1888 18.12 51.8621 18.12Z" fill="#AC258A"/>
</svg>
